{"glyphs":{"0":{"ha":519,"x_min":34,"x_max":486,"o":"m 203 60 q 219 62 211 60 q 302 134 268 76 q 357 278 336 192 q 384 522 384 393 q 367 710 384 621 q 316 854 351 798 q 225 914 280 913 q 157 875 186 914 q 109 771 128 836 q 80 626 90 707 q 71 463 71 546 q 79 314 71 387 q 104 184 87 241 q 145 94 121 127 q 203 60 170 60 m 258 -23 q 222 -18 241 -23 q 117 72 159 1 q 54 246 75 142 q 34 463 34 350 q 56 697 34 583 q 121 892 78 811 q 229 1000 165 974 q 279 1009 255 1009 q 369 967 330 1009 q 434 856 408 926 q 473 696 460 785 q 486 513 486 608 l 484 460 q 464 280 480 366 q 420 126 448 194 q 351 17 392 58 q 258 -23 311 -23 z "},"1":{"ha":170,"x_min":34,"x_max":136,"o":"m 85 3 q 72 8 77 3 q 66 21 66 14 q 61 263 66 147 q 50 493 56 380 q 39 721 43 606 q 34 960 34 836 q 49 996 34 981 q 85 1011 64 1011 q 121 996 106 1011 q 136 960 136 981 q 131 721 136 836 q 120 493 126 606 q 108 263 113 380 q 103 21 103 147 q 98 8 103 14 q 85 3 92 3 z "},"2":{"ha":425,"x_min":34,"x_max":391,"o":"m 196 -3 q 116 12 142 -3 q 91 74 91 26 q 115 210 91 121 q 181 429 142 310 q 222 558 202 494 q 270 813 270 723 l 270 825 q 251 921 270 891 q 205 951 232 951 l 199 951 q 129 900 163 945 q 80 777 95 854 q 73 703 73 743 q 103 537 73 627 q 104 530 104 534 q 86 513 104 517 q 68 525 75 513 q 34 710 34 628 q 39 776 34 745 q 97 911 54 859 q 195 982 140 964 q 247 991 221 991 q 339 953 298 991 q 389 836 380 915 q 391 802 391 819 q 324 532 391 688 q 227 328 277 427 q 166 201 193 259 q 123 72 123 110 q 136 42 123 50 q 189 31 153 31 q 251 35 215 31 q 320 38 282 37 q 333 33 328 38 q 338 20 338 28 q 333 7 338 12 q 321 1 328 2 q 196 -3 229 -3 z "},"3":{"ha":408,"x_min":34,"x_max":374,"o":"m 206 -7 q 155 13 178 -7 q 88 119 116 47 q 34 373 56 205 q 50 393 34 390 q 71 378 67 393 q 122 133 92 214 q 138 96 129 115 q 187 50 160 50 q 229 80 206 50 q 270 173 254 115 q 286 288 286 231 q 254 405 286 366 q 195 429 233 429 q 153 421 176 429 q 117 414 129 414 q 104 421 104 414 q 136 464 104 435 q 238 623 208 530 q 265 792 265 705 q 241 921 265 876 q 206 948 227 948 q 178 935 193 948 q 98 677 116 878 q 94 562 94 625 q 89 549 94 554 q 76 543 83 543 q 63 549 68 543 q 58 562 58 554 q 62 680 58 628 q 115 907 75 838 q 163 965 136 947 q 220 983 191 983 q 290 957 256 983 q 342 884 323 931 q 360 791 360 844 q 343 691 360 745 q 197 469 309 581 q 228 471 213 471 q 317 444 284 471 q 374 293 374 395 q 343 137 374 215 q 266 18 313 58 q 206 -7 234 -7 z "},"4":{"ha":439,"x_min":34,"x_max":405,"o":"m 354 3 q 341 8 347 3 q 335 21 335 14 q 330 266 335 148 q 318 500 325 384 q 156 486 240 496 q 77 479 106 479 q 38 490 47 479 q 34 505 34 496 q 47 553 34 522 q 88 634 61 584 l 144 739 q 190 766 163 766 q 214 760 202 766 q 240 714 240 741 q 234 690 240 702 l 203 635 q 174 582 184 602 q 164 551 164 562 q 165 546 164 548 q 209 534 169 534 q 253 535 227 534 q 316 537 279 536 q 307 743 311 638 q 302 960 302 847 q 318 996 302 981 q 354 1011 333 1011 q 390 996 375 1011 q 405 960 405 981 q 400 733 405 842 q 390 518 396 624 q 378 275 383 397 q 372 21 372 153 q 367 8 372 14 q 354 3 361 3 z "},"5":{"ha":444,"x_min":34,"x_max":410,"o":"m 206 -14 l 197 -14 q 43 66 124 -14 q 37 79 37 73 q 43 92 37 87 q 56 98 49 98 q 68 92 63 98 q 195 20 143 20 l 206 21 q 277 79 250 28 q 315 216 304 131 q 322 332 322 273 q 298 535 322 439 q 198 667 262 667 q 172 662 185 667 q 66 572 121 642 q 52 565 60 565 q 39 570 45 565 q 34 583 34 574 q 43 800 34 716 q 96 981 58 935 q 161 1016 123 1016 q 213 999 187 1016 q 280 927 253 973 q 307 838 307 882 l 307 827 q 290 794 304 806 q 256 781 275 781 q 219 797 232 782 q 205 832 205 812 l 206 849 q 197 904 206 876 q 174 949 188 932 q 144 966 160 966 q 123 956 134 966 q 79 798 94 931 q 71 632 73 730 q 151 696 109 671 q 235 722 194 722 q 377 587 328 722 q 410 382 410 492 q 391 220 410 300 q 320 54 368 117 q 206 -14 272 -9 z "},"6":{"ha":457,"x_min":34,"x_max":423,"o":"m 254 -7 q 176 20 215 -7 q 106 107 138 48 q 55 258 75 165 q 34 479 34 364 q 44 636 34 558 q 160 939 73 850 q 237 983 198 977 l 252 985 q 330 949 294 985 q 389 842 366 913 q 414 646 414 765 l 414 623 q 398 588 413 602 q 363 574 384 574 q 326 589 340 574 q 312 625 312 604 l 313 674 q 304 814 313 758 q 279 915 296 882 q 242 948 262 948 q 155 791 193 945 q 125 507 127 672 q 235 541 183 541 q 368 465 321 537 q 423 258 423 382 q 405 133 423 186 q 356 44 387 79 q 254 -7 311 -7 m 264 28 q 280 31 272 28 q 355 109 323 44 q 387 268 387 173 q 370 389 387 336 q 335 450 357 427 q 281 473 313 473 q 248 467 266 473 q 128 382 193 444 l 127 380 q 213 54 142 124 q 264 28 238 28 z "},"7":{"ha":452,"x_min":34,"x_max":418,"o":"m 189 -9 l 186 -9 q 172 9 172 -4 l 172 12 q 241 461 201 264 l 162 460 q 137 470 147 460 q 125 495 126 480 q 136 520 125 510 q 161 531 146 531 l 256 533 q 310 753 288 673 q 336 877 336 850 q 322 908 336 901 q 276 916 309 916 q 231 913 251 915 q 85 909 176 909 q 49 924 64 909 q 34 960 34 939 q 49 996 34 981 q 85 1011 64 1011 l 361 1011 q 404 1005 391 1011 q 418 975 418 999 q 395 859 418 941 q 208 5 283 436 q 201 -5 206 -1 q 189 -9 196 -9 z "},"8":{"ha":496,"x_min":34,"x_max":462,"o":"m 243 -14 q 142 13 189 -14 q 75 98 96 41 q 64 170 64 130 q 121 379 64 260 q 193 494 155 446 q 122 586 155 541 q 34 805 34 709 q 94 935 34 886 q 163 972 125 960 q 243 984 202 984 q 355 958 304 984 q 418 902 394 937 q 441 817 441 867 q 393 667 441 750 q 349 641 376 641 q 324 648 336 641 q 298 692 298 666 q 305 718 298 705 q 353 861 353 800 q 351 884 353 873 q 319 936 342 919 q 266 954 296 954 q 203 936 233 954 q 156 881 172 917 q 144 819 144 854 q 211 642 144 741 q 287 538 246 591 q 402 375 350 458 q 462 192 462 276 q 446 113 462 148 q 371 23 421 55 q 261 -14 320 -9 l 243 -14 m 251 14 l 261 14 q 339 50 306 18 q 378 150 376 84 q 257 414 378 260 q 126 146 126 258 q 127 128 126 136 q 170 42 134 71 q 251 14 207 14 z "},"9":{"ha":456,"x_min":34,"x_max":422,"o":"m 205 -7 q 127 28 163 -7 q 68 135 91 64 q 42 326 42 210 l 43 354 q 58 389 43 375 q 94 404 73 404 q 130 388 116 403 q 144 353 144 374 l 144 307 q 178 62 144 130 q 215 29 195 29 q 302 186 263 32 q 332 471 329 305 q 221 437 273 437 q 88 512 136 440 q 34 722 34 595 q 52 845 34 791 q 100 933 71 899 q 203 985 146 985 q 280 957 241 985 q 351 870 319 929 q 402 719 382 812 q 422 497 422 612 q 413 341 422 418 q 364 146 397 224 q 220 -6 302 6 l 205 -7 m 176 505 q 209 511 191 505 q 328 595 264 533 q 329 596 329 595 q 330 597 329 596 q 321 702 327 652 q 289 844 309 790 q 244 924 269 899 q 193 949 218 949 q 176 946 184 949 q 101 868 132 933 q 70 708 70 803 l 71 673 q 87 589 75 627 q 122 528 100 551 q 176 505 144 505 z "},"\u0000":{"ha":0,"x_min":0,"x_max":0,"o":""}," ":{"ha":471,"x_min":0,"x_max":0,"o":""},"!":{"ha":199,"x_min":34,"x_max":165,"o":"m 111 3 q 74 23 90 3 q 58 75 58 44 q 73 126 58 104 q 111 147 88 147 q 150 126 134 147 q 165 75 165 105 q 150 24 165 45 q 111 3 134 3 m 112 201 l 109 201 q 97 207 102 201 q 93 220 93 212 q 99 317 99 271 q 89 453 99 389 q 65 576 78 517 l 55 625 q 34 800 34 726 q 63 976 34 888 q 82 1002 68 992 q 112 1011 96 1011 q 127 1008 119 1011 q 153 989 144 1002 q 163 960 163 976 q 160 943 163 951 q 128 804 136 872 q 119 669 119 735 q 127 500 120 594 q 136 328 136 415 q 130 216 136 273 q 124 205 129 210 q 112 201 119 201 z "},"\"":{"ha":220,"x_min":34,"x_max":186,"o":"m 79 851 q 65 857 71 851 q 60 869 60 863 q 65 882 60 877 q 71 907 69 887 l 66 907 q 43 918 52 907 q 34 943 34 930 q 42 966 34 956 q 71 980 54 980 q 97 967 85 980 q 109 921 109 954 q 104 884 109 904 q 79 851 97 851 m 156 851 q 144 857 149 851 q 138 869 138 863 q 143 882 138 877 q 149 907 146 888 l 144 907 q 120 918 130 907 q 111 944 111 930 q 119 966 111 956 q 149 980 132 980 q 174 967 163 980 q 186 922 186 954 q 169 857 184 873 q 156 851 163 851 z "},"#":{"ha":507,"x_min":34,"x_max":473,"o":"m 341 2 l 337 3 q 323 21 323 8 l 323 25 q 342 188 342 106 q 273 177 304 185 q 209 158 243 170 q 178 17 196 89 q 160 2 173 2 l 156 3 q 142 21 142 8 l 142 25 q 160 143 157 84 q 85 125 109 128 q 53 136 67 125 q 35 165 39 147 l 34 176 q 45 208 34 194 q 74 226 56 222 q 161 236 113 235 q 154 321 158 278 l 144 318 q 85 304 104 307 q 54 315 67 304 q 34 356 34 331 q 45 388 34 374 q 74 406 56 401 q 140 414 104 412 q 111 554 126 484 l 109 565 q 120 597 109 583 q 149 615 132 611 l 160 616 q 192 605 178 616 q 210 576 206 594 q 231 416 228 494 q 321 412 276 416 q 292 554 309 483 l 290 565 q 301 597 290 583 q 330 615 313 611 l 341 616 q 373 605 359 616 q 391 576 387 594 q 412 406 410 488 l 456 401 q 468 396 463 401 q 473 382 473 391 q 467 370 472 374 q 454 365 462 365 l 413 368 q 401 227 412 297 l 456 222 q 468 217 463 222 q 473 203 473 212 q 467 191 472 195 q 455 186 462 186 q 395 189 412 189 q 359 17 381 105 q 353 6 358 10 q 341 2 347 2 m 342 231 q 329 366 339 299 q 231 345 275 360 q 221 237 229 291 q 342 231 282 236 z "},"$":{"ha":364,"x_min":34,"x_max":330,"o":"m 191 -3 q 178 3 184 -3 q 173 16 173 9 l 173 51 q 120 80 141 58 q 98 138 98 102 q 122 216 98 172 q 138 226 129 226 q 147 224 143 226 q 157 208 157 217 q 155 199 157 203 q 135 138 135 162 q 173 87 135 101 l 172 274 q 106 355 138 313 q 34 518 34 450 q 50 582 34 554 q 90 628 65 610 q 172 657 127 655 l 171 743 q 176 756 171 751 q 189 762 182 762 q 202 756 197 762 q 208 743 208 751 l 208 653 q 259 623 237 646 q 291 559 281 600 q 295 520 295 541 q 269 402 295 471 q 252 391 263 391 q 245 393 248 391 q 233 410 233 399 l 235 416 q 258 519 258 477 q 255 551 258 537 q 208 612 243 596 l 209 377 l 218 365 q 330 150 330 220 q 313 93 330 116 q 268 59 295 71 q 210 47 240 47 l 210 16 q 204 3 210 9 q 191 -3 199 -3 m 172 427 l 172 623 l 169 623 q 118 598 138 623 q 108 563 108 585 q 172 427 108 514 m 210 82 q 248 96 232 84 q 264 130 264 108 q 248 177 264 150 q 209 231 233 201 l 210 82 z "},"%":{"ha":340,"x_min":34,"x_max":307,"o":"m 52 39 q 39 44 45 39 q 34 57 34 50 q 57 269 35 159 q 123 467 79 378 q 178 568 151 523 q 240 688 215 627 q 270 835 266 749 q 276 847 270 842 q 289 852 281 852 q 301 847 296 852 q 307 834 307 842 q 214 422 300 599 q 155 317 183 362 q 96 204 119 262 q 71 57 73 147 q 65 44 71 49 q 52 39 60 39 m 159 676 q 100 702 125 676 q 75 764 75 727 q 100 827 75 801 q 159 852 125 852 q 219 827 194 852 q 244 764 244 801 q 219 702 244 727 q 159 676 194 676 m 189 61 q 129 86 154 61 q 104 149 104 112 q 129 212 104 186 q 189 237 154 237 q 248 212 223 237 q 273 149 273 186 q 248 86 273 112 q 189 61 223 61 z "},"&":{"ha":511,"x_min":34,"x_max":477,"o":"m 229 -7 q 171 15 195 -7 q 147 86 147 38 q 216 281 147 163 l 178 281 q 132 251 163 251 q 97 265 111 251 q 83 300 83 279 q 97 335 83 320 q 132 349 111 349 q 178 318 164 349 l 212 318 q 34 585 34 470 q 52 652 34 623 q 101 701 71 681 q 170 730 132 720 q 245 739 207 739 q 334 726 291 739 q 424 670 388 709 q 460 567 460 630 q 448 494 460 534 q 347 318 425 418 l 382 318 q 393 335 385 328 q 427 349 407 349 q 462 335 448 349 q 477 300 477 320 q 462 265 477 279 q 427 251 448 251 q 393 265 407 251 q 382 281 385 273 l 334 281 l 364 248 q 395 213 383 227 q 451 128 429 175 q 477 20 473 81 q 473 8 477 14 q 460 3 468 3 q 447 7 452 3 q 441 20 441 12 q 370 186 434 111 q 294 254 343 216 q 188 68 188 129 q 199 38 188 47 q 227 28 210 28 q 267 39 245 28 q 322 87 298 54 q 297 104 306 92 q 288 131 288 116 q 298 160 288 146 q 334 179 313 179 q 359 171 347 179 q 377 132 377 159 q 370 98 377 117 q 286 7 340 33 q 229 -7 256 -7 m 333 123 q 339 126 337 123 q 342 132 342 128 q 339 138 342 136 q 333 140 337 140 q 327 138 330 140 q 325 132 325 136 q 327 126 325 128 q 333 123 330 123 m 266 361 q 337 514 322 449 q 345 573 345 546 q 307 675 345 638 q 233 708 272 708 q 186 694 208 708 q 146 609 146 668 q 266 361 146 509 z "},"'":{"ha":142,"x_min":34,"x_max":109,"o":"m 79 851 q 66 857 72 851 q 60 869 60 863 q 66 882 60 876 q 71 907 69 888 l 66 907 q 43 918 52 907 q 34 943 34 930 q 42 966 34 956 q 71 980 55 980 q 97 967 85 980 q 109 922 109 954 q 104 884 108 901 q 79 851 97 851 z "},"(":{"ha":464,"x_min":34,"x_max":430,"o":"m 409 -9 q 244 34 315 -9 q 125 151 173 78 q 34 490 34 297 q 54 659 34 576 q 116 810 75 742 q 234 932 162 886 q 406 978 307 978 l 412 978 q 425 972 419 978 q 430 960 430 967 q 424 947 430 952 q 411 941 418 941 l 408 941 q 249 856 314 941 q 161 629 184 771 q 148 482 148 557 l 149 454 q 195 210 153 320 q 247 115 216 156 q 318 51 278 74 q 409 27 359 27 q 422 22 416 27 q 427 9 427 16 q 422 -4 427 1 q 409 -9 416 -9 z "},")":{"ha":463,"x_min":34,"x_max":430,"o":"m 54 -9 q 41 -4 47 -9 q 36 9 36 1 q 41 22 36 16 q 54 27 47 27 q 145 51 104 27 q 216 115 185 74 q 269 210 248 156 q 315 454 311 320 l 315 487 q 267 763 315 634 q 214 856 245 816 q 144 919 184 896 q 55 941 104 941 l 52 941 q 39 947 45 941 q 34 960 34 952 q 39 973 34 968 q 52 978 44 978 l 58 978 q 229 932 157 978 q 347 810 301 886 q 409 661 389 743 q 430 492 430 578 l 429 454 q 338 151 420 282 q 220 34 290 78 q 54 -9 149 -9 z "},"*":{"ha":201,"x_min":34,"x_max":168,"o":"m 134 814 q 118 825 123 814 l 103 861 l 88 825 q 72 814 82 814 q 64 815 68 814 q 53 832 53 821 q 75 890 53 836 l 52 890 q 39 895 45 890 q 34 908 34 901 q 39 921 34 916 q 52 926 45 926 l 85 926 l 85 965 q 90 978 85 972 q 103 983 96 983 q 116 978 111 983 q 121 965 121 972 l 121 926 l 149 926 q 162 921 157 926 q 168 908 168 916 q 162 895 168 901 q 149 890 157 890 l 131 890 q 153 832 153 836 q 142 815 153 821 q 134 814 138 814 z "},"+":{"ha":580,"x_min":34,"x_max":546,"o":"m 290 -2 q 265 8 275 -2 q 254 34 254 19 l 254 308 l 70 308 q 44 318 55 308 q 34 343 34 328 q 44 369 34 358 q 70 379 55 379 l 254 379 l 254 652 q 265 678 254 667 q 290 688 275 688 q 315 678 304 688 q 326 652 326 667 l 326 379 l 510 379 q 535 369 525 379 q 546 343 546 358 q 535 318 546 328 q 510 308 525 308 l 326 308 l 326 34 q 315 8 326 19 q 290 -2 304 -2 z "},",":{"ha":142,"x_min":34,"x_max":108,"o":"m 79 -43 q 66 -37 71 -43 q 60 -24 60 -31 q 65 -12 60 -18 q 71 13 69 -5 l 66 12 q 43 24 52 12 q 34 50 34 35 q 42 73 34 62 q 71 86 54 86 q 96 73 85 86 q 108 28 108 60 q 104 -11 107 7 q 79 -43 97 -43 z "},"-":{"ha":354,"x_min":34,"x_max":320,"o":"m 285 183 l 70 183 q 44 194 55 183 q 34 219 34 204 q 44 244 34 233 q 70 254 55 254 l 285 254 q 310 244 299 254 q 320 219 320 233 q 310 194 320 204 q 285 183 299 183 z "},".":{"ha":133,"x_min":34,"x_max":99,"o":"m 66 3 q 43 12 53 3 q 34 35 34 22 q 43 58 34 48 q 66 68 53 68 q 90 58 80 68 q 99 35 99 49 q 90 12 99 22 q 66 3 80 3 z "},"/":{"ha":425,"x_min":34,"x_max":391,"o":"m 52 3 q 45 4 49 3 q 34 21 34 9 q 35 28 34 24 q 201 523 138 281 q 291 908 250 705 q 309 938 295 926 q 341 949 323 949 q 380 930 366 949 q 391 898 391 916 l 391 888 q 271 496 347 688 q 157 222 216 358 q 69 14 112 118 q 52 3 64 3 z "},":":{"ha":174,"x_min":34,"x_max":140,"o":"m 87 259 q 49 274 64 259 q 34 312 34 290 q 49 349 34 334 q 87 365 64 365 q 124 350 108 365 q 140 312 140 334 q 124 274 140 290 q 87 259 108 259 m 87 11 q 49 26 64 11 q 34 64 34 42 q 49 101 34 85 q 87 117 64 117 q 124 101 109 117 q 140 64 140 85 q 124 26 140 41 q 87 11 108 11 z "},";":{"ha":174,"x_min":34,"x_max":140,"o":"m 87 259 q 50 274 65 259 q 34 312 34 290 q 50 349 34 334 q 87 365 65 365 q 125 349 109 365 q 140 312 140 334 q 125 274 140 290 q 87 259 109 259 m 94 9 q 82 15 87 9 q 77 27 77 20 q 81 40 77 34 q 87 64 85 46 q 82 64 85 64 q 59 75 68 64 q 50 101 50 87 q 58 124 50 113 q 87 138 71 138 q 113 124 101 138 q 124 79 124 111 q 120 41 123 58 q 94 9 113 9 z "},"<":{"ha":598,"x_min":34,"x_max":564,"o":"m 547 47 q 539 49 543 47 q 283 144 400 107 q 157 186 210 170 q 50 224 72 212 q 34 241 34 233 q 93 281 34 258 q 217 331 137 301 l 271 352 q 539 459 360 386 q 547 460 543 460 q 563 450 557 460 q 564 442 564 446 q 553 425 564 431 q 311 307 370 350 q 271 254 271 279 q 415 143 272 207 q 553 83 473 116 q 564 66 564 77 q 563 58 564 62 q 547 47 557 47 z "},"=":{"ha":431,"x_min":34,"x_max":397,"o":"m 361 43 l 70 43 q 44 53 55 43 q 34 78 34 64 q 44 103 34 93 q 70 114 55 114 l 361 114 q 386 103 376 114 q 397 78 397 93 q 386 53 397 64 q 361 43 376 43 m 361 288 l 70 288 q 44 299 55 288 q 34 324 34 309 q 44 349 34 338 q 70 359 55 359 l 361 359 q 386 349 376 359 q 397 324 397 338 q 386 299 397 309 q 361 288 376 288 z "},">":{"ha":599,"x_min":34,"x_max":565,"o":"m 52 47 q 34 65 37 47 q 45 83 34 76 q 184 143 126 116 q 327 254 326 207 q 288 308 327 280 q 171 371 249 336 q 45 425 117 395 q 34 443 34 432 q 52 460 37 460 q 60 459 56 460 l 175 412 q 391 328 266 376 q 506 281 464 300 q 565 241 565 258 q 549 224 565 233 q 501 205 533 216 l 445 186 q 60 49 231 121 q 52 47 56 47 z "},"?":{"ha":424,"x_min":34,"x_max":390,"o":"m 163 205 q 149 212 155 205 q 88 342 88 276 q 120 444 89 393 q 186 536 149 490 l 191 543 q 271 665 250 610 q 284 758 284 701 l 283 798 q 264 884 279 851 q 227 933 249 918 q 182 949 205 949 q 119 913 144 949 q 101 844 101 886 q 111 784 101 817 q 161 686 130 723 q 174 652 174 670 q 156 614 174 631 q 122 602 140 602 q 84 619 101 602 q 46 689 58 650 q 34 768 34 728 l 34 772 q 70 906 37 855 q 152 974 103 956 q 203 983 177 983 q 313 938 262 983 q 384 802 365 892 q 390 737 390 768 q 245 477 390 589 l 220 457 q 157 401 184 429 q 125 333 127 370 q 176 237 125 292 q 180 224 180 231 q 175 211 180 216 q 163 205 170 205 m 177 3 q 139 24 154 3 q 124 75 124 45 q 139 126 124 105 q 177 147 154 147 q 215 126 200 147 q 231 75 231 104 q 215 23 231 44 q 177 3 199 3 z "},"@":{"ha":570,"x_min":34,"x_max":536,"o":"m 302 8 q 212 22 256 8 q 81 122 127 53 q 34 266 34 191 q 78 390 37 340 q 173 458 115 435 q 292 481 231 481 l 297 481 q 456 431 388 481 q 532 277 524 380 l 532 266 q 504 150 532 201 q 436 95 476 98 q 384 124 409 95 q 340 210 358 154 q 304 151 324 176 q 256 118 276 118 q 225 139 237 118 q 208 220 208 170 q 235 332 208 286 q 297 375 262 375 q 364 336 330 375 q 367 328 367 332 q 362 319 367 323 q 354 316 358 316 q 345 320 349 316 q 313 342 326 342 q 283 304 295 342 q 263 206 269 260 q 261 176 261 189 q 270 148 261 151 q 290 166 277 148 q 330 245 310 199 q 324 279 324 269 q 335 302 325 293 q 357 311 345 311 q 382 300 373 310 q 391 277 391 290 l 391 273 q 389 227 389 248 q 400 155 389 179 q 428 131 412 131 q 436 132 432 131 q 480 178 465 144 q 495 252 495 211 q 494 279 495 265 q 432 402 483 360 q 319 444 380 444 l 299 443 q 198 395 242 437 q 141 273 154 353 q 139 237 139 255 q 161 135 139 183 q 228 62 182 87 q 307 45 264 45 q 414 63 359 45 q 509 103 469 81 q 517 105 513 105 q 534 95 528 105 q 536 87 536 91 q 526 71 536 77 q 302 8 408 8 z "},"A":{"ha":629,"x_min":0,"x_max":604,"o":"m 50 23 q 84 44 64 23 q 129 115 104 66 q 180 244 154 163 q 92 187 125 220 q 44 119 59 154 q 28 60 28 85 q 50 23 28 26 m 47 -16 q 12 9 24 -16 q 0 70 0 35 q 21 169 0 115 q 87 266 41 222 q 205 330 132 310 q 281 685 254 509 q 312 965 309 862 l 312 968 q 328 1005 312 992 q 363 1017 344 1017 q 397 1005 382 1017 q 414 969 412 994 q 443 689 418 873 q 505 331 469 505 l 517 329 q 551 322 536 327 q 566 304 566 317 q 547 286 564 286 q 531 289 538 287 q 513 292 524 290 q 602 20 555 107 q 604 10 604 15 q 598 -3 604 3 q 586 -8 593 -8 q 570 1 576 -8 q 460 295 521 91 l 444 295 q 231 263 343 295 q 158 96 192 157 q 95 9 123 35 q 47 -16 67 -16 m 448 340 q 403 504 419 439 q 360 681 390 555 q 258 340 316 510 q 349 345 303 345 q 448 340 398 345 z "},"B":{"ha":627,"x_min":0,"x_max":607,"o":"m 385 -14 q 222 62 308 -14 q 216 76 216 68 q 222 88 216 82 q 235 94 227 94 q 246 90 241 94 q 311 44 273 66 q 389 22 350 22 q 438 38 415 22 q 489 124 471 65 q 507 252 507 183 l 507 266 q 481 406 505 343 q 410 490 458 469 q 369 498 390 498 q 311 490 337 498 q 281 485 292 485 q 268 494 269 485 q 328 602 268 515 q 422 770 392 699 q 457 904 457 851 q 455 928 457 918 q 422 958 446 958 q 386 944 406 958 q 342 901 365 930 q 226 630 271 810 q 172 152 181 450 l 174 73 l 172 9 q 167 -3 172 2 q 154 -8 161 -8 q 141 -3 146 -8 q 136 10 136 3 l 135 90 q 71 631 126 307 q 2 953 38 826 q 0 967 0 960 q 10 998 0 984 q 51 1018 25 1018 q 81 1008 68 1018 q 100 981 95 998 q 160 474 139 829 q 249 807 189 684 q 389 978 311 936 q 451 997 422 997 q 515 964 491 997 q 534 895 534 939 q 522 823 534 863 q 361 574 488 711 q 320 526 320 532 q 323 524 320 524 q 339 527 328 524 q 368 534 351 530 q 406 537 385 537 l 424 536 q 526 494 486 530 q 587 401 566 457 q 607 284 607 346 l 606 266 q 565 109 603 181 q 456 3 527 37 q 385 -14 420 -14 z "},"C":{"ha":578,"x_min":0,"x_max":558,"o":"m 306 -9 q 203 26 258 -9 q 54 240 108 94 q 0 543 0 385 q 26 738 0 645 q 107 896 52 831 q 194 968 150 945 q 276 991 237 991 q 360 953 327 991 q 393 840 393 914 q 376 730 393 792 q 370 720 374 724 q 359 717 365 717 l 354 718 q 340 735 340 723 l 341 740 q 357 842 357 799 q 336 925 357 897 q 285 954 315 954 q 222 926 255 954 q 163 841 189 898 q 120 684 134 774 q 105 498 105 594 q 135 239 105 361 q 227 60 165 117 q 306 26 269 26 q 406 83 357 26 q 477 210 449 139 q 522 355 513 300 q 539 370 526 370 l 543 369 q 558 351 558 364 l 551 319 q 508 184 538 257 q 431 56 477 112 q 306 -9 374 -9 z "},"D":{"ha":575,"x_min":0,"x_max":541,"o":"m 155 -8 q 141 -2 146 -8 q 136 11 136 3 l 136 41 q 113 351 136 162 q 71 631 95 492 q 2 953 38 826 q 0 967 0 960 q 10 998 0 984 q 37 1016 20 1011 q 51 1018 44 1018 q 81 1008 68 1018 q 100 981 95 998 q 148 646 131 865 q 163 427 157 538 q 172 521 167 474 q 256 913 203 795 q 341 992 291 988 q 430 919 388 992 q 500 732 472 846 q 536 489 528 617 q 541 385 541 436 q 526 204 541 288 q 478 66 511 121 q 368 -5 433 -5 q 223 62 301 -5 q 217 76 217 68 q 221 87 217 82 q 235 94 228 94 q 247 90 241 94 q 353 35 310 35 q 424 96 399 35 q 454 320 454 172 q 446 489 454 401 q 368 892 420 748 q 330 949 347 949 l 328 949 q 289 897 310 949 q 241 729 260 827 q 187 268 204 542 q 173 9 176 103 q 167 -3 172 2 q 155 -8 162 -8 z "},"E":{"ha":442,"x_min":0,"x_max":397,"o":"m 122 -30 q 70 -20 92 -30 q 37 14 49 -11 q 22 83 24 38 q 18 203 18 141 q 20 349 18 275 q 22 463 22 407 q 16 631 22 546 l 10 701 q 0 878 0 798 q 1 913 0 897 q 15 970 3 950 q 50 998 28 990 q 100 1005 71 1005 q 191 998 140 1005 l 220 995 q 371 985 302 985 q 384 980 378 985 q 389 967 389 975 q 384 954 389 960 q 371 949 378 949 q 217 958 300 949 q 166 962 188 962 q 121 951 136 962 q 103 914 106 941 q 102 873 102 897 q 105 781 102 833 l 117 633 q 125 418 124 565 q 257 438 206 438 q 342 417 311 438 q 350 402 350 410 q 347 392 350 397 q 332 384 340 384 q 321 387 327 384 q 257 401 296 401 q 125 380 209 401 q 121 185 121 287 q 123 83 121 134 q 134 28 123 43 q 176 13 145 13 q 218 16 194 13 q 378 28 309 28 q 391 23 386 28 q 397 10 397 18 q 391 -3 397 3 q 378 -8 386 -8 q 293 -12 332 -8 q 223 -20 254 -16 q 122 -30 164 -30 z "},"F":{"ha":317,"x_min":0,"x_max":421,"o":"m 110 -8 q 97 -3 102 -8 q 92 9 92 3 l 93 52 q 16 783 93 294 q 10 814 14 798 q 0 907 0 874 q 16 973 0 945 q 100 1010 35 1010 q 186 1002 139 1010 l 217 998 q 402 985 312 985 q 415 980 410 985 q 421 967 421 975 q 415 954 421 960 q 402 949 410 949 q 218 961 336 949 q 178 963 197 963 q 121 948 139 963 q 103 897 103 934 q 113 824 103 871 l 117 800 q 136 627 132 698 q 209 644 168 636 q 287 652 249 652 q 372 631 340 652 q 380 616 380 625 q 377 606 380 611 q 361 598 370 598 q 351 601 357 598 q 288 616 326 616 q 210 607 250 616 q 138 590 170 599 l 137 590 q 140 433 140 484 q 132 118 140 324 l 129 9 q 123 -3 128 2 q 110 -8 117 -8 z "},"G":{"ha":490,"x_min":0,"x_max":449,"o":"m 283 -319 q 225 -302 252 -319 q 181 -253 198 -285 q 164 -176 164 -221 q 174 -108 164 -145 q 181 -98 176 -102 q 191 -95 186 -95 l 197 -96 q 210 -113 210 -101 l 210 -118 q 201 -176 201 -149 q 225 -255 201 -226 q 279 -283 250 -283 l 285 -283 q 333 -251 313 -281 q 354 -156 354 -220 q 351 -112 354 -136 q 332 3 347 -73 q 277 -7 306 -7 q 187 18 233 -7 q 103 96 142 43 q 26 279 51 172 q 0 504 1 386 q 18 698 0 604 q 71 863 36 792 q 156 967 106 933 q 253 1002 205 1002 q 298 994 276 1002 q 359 941 335 979 q 382 840 382 902 q 366 730 382 791 q 359 720 363 724 q 348 717 354 717 q 334 724 338 718 q 330 735 330 729 l 330 740 q 346 842 346 798 q 329 922 346 892 q 284 956 311 951 l 273 958 q 205 923 240 958 q 144 817 170 889 q 97 484 98 676 q 112 293 97 385 q 159 134 127 201 q 219 55 185 80 q 287 31 253 31 q 326 39 307 31 q 300 242 301 161 q 316 341 300 311 q 352 370 331 370 q 363 368 357 370 q 412 324 389 359 q 445 239 435 289 q 449 193 449 216 q 400 52 449 113 q 415 -111 415 -46 q 396 -230 415 -184 q 346 -298 376 -276 q 283 -319 316 -319 m 391 106 q 410 207 410 148 q 409 241 410 224 q 394 311 404 283 q 376 339 384 339 l 374 339 q 366 300 366 338 q 391 106 366 237 z "},"H":{"ha":563,"x_min":0,"x_max":517,"o":"m 497 -8 q 485 -3 490 -8 q 479 9 479 3 l 479 34 q 456 351 479 156 q 439 473 449 412 q 170 233 203 463 q 173 78 173 143 l 172 20 q 174 10 174 15 q 169 -2 174 3 q 153 -8 164 -8 q 141 -2 146 -8 q 136 11 136 3 l 136 17 q 127 139 127 79 q 129 186 127 163 q 112 351 123 264 q 71 631 95 492 q 2 953 37 826 q 0 968 0 960 q 9 998 0 984 q 50 1018 25 1018 q 81 1008 67 1018 q 100 981 95 998 q 148 646 130 865 q 166 353 160 500 l 166 347 q 222 429 187 393 q 434 510 293 503 q 345 953 392 787 q 343 966 343 960 q 353 997 343 983 q 380 1016 363 1011 q 394 1018 387 1018 q 425 1008 411 1018 q 444 981 439 998 q 492 646 474 865 q 517 73 517 332 l 516 9 q 510 -3 515 2 q 497 -8 505 -8 z "},"I":{"ha":222,"x_min":0,"x_max":197,"o":"m 72 56 q 74 80 73 56 l 73 119 q 71 75 71 91 q 72 56 71 57 m 67 -8 q 45 23 54 -7 q 36 98 36 54 q 64 235 36 172 q 37 513 53 363 l 24 637 q 0 947 0 861 q 2 977 0 967 q 20 1005 6 994 q 52 1017 35 1017 l 63 1015 q 92 997 81 1011 q 103 965 103 983 l 102 954 q 98 882 98 935 q 104 642 98 794 l 105 618 q 112 301 112 454 q 174 332 138 324 l 178 333 q 190 329 184 333 q 197 313 195 324 q 193 302 197 307 q 182 296 189 298 q 112 245 136 285 q 104 97 111 153 q 87 16 97 41 q 67 -8 78 -8 z "},"J":{"ha":363,"x_min":0,"x_max":348,"o":"m 156 -278 q 81 -228 117 -278 q 23 -98 45 -178 q 0 79 0 -18 q 7 174 0 127 q 148 368 34 327 l 154 369 q 172 357 165 369 q 172 351 172 354 q 160 334 172 340 q 39 90 39 290 q 45 -3 39 41 q 60 -83 51 -48 q 105 -196 79 -152 q 157 -240 132 -240 q 198 -193 180 -240 q 222 43 222 -123 q 211 300 222 141 q 200 555 200 463 l 201 618 q 243 905 204 762 l 243 909 l 209 909 q 186 908 197 909 q 137 871 153 906 q 120 859 131 859 q 102 878 102 863 q 103 884 102 881 q 136 931 117 918 q 180 945 156 943 l 197 945 l 227 945 q 256 946 241 945 q 315 1002 282 1002 q 338 991 329 1002 q 348 967 348 981 q 299 917 348 935 q 298 904 298 911 q 292 726 292 814 q 297 510 292 646 q 303 283 303 397 q 300 164 303 224 q 229 -218 286 -113 q 156 -278 196 -278 z "},"K":{"ha":575,"x_min":0,"x_max":807,"o":"m 656 -214 q 528 -146 593 -214 q 245 446 383 10 q 173 36 197 208 q 172 9 173 22 q 167 -3 172 2 q 154 -8 161 -8 q 138 -3 143 -8 q 133 9 133 3 q 136 48 134 29 q 71 631 132 271 q 2 953 38 826 q 0 967 0 960 q 10 998 0 984 q 37 1016 20 1011 q 51 1018 44 1018 q 81 1008 68 1018 q 100 981 95 998 q 148 646 130 865 q 165 382 159 515 q 192 576 176 488 q 237 764 207 665 q 318 932 274 878 q 405 986 361 986 q 426 983 416 986 q 563 760 512 956 l 564 755 q 549 737 564 743 l 545 736 q 527 751 532 736 q 427 945 481 943 q 289 642 363 945 q 367 361 305 612 q 406 208 393 252 q 554 -118 475 -20 q 653 -178 603 -178 q 774 -92 713 -178 q 789 -84 781 -84 q 800 -87 794 -84 q 807 -102 807 -94 q 804 -113 807 -108 q 656 -214 732 -214 z "},"L":{"ha":518,"x_min":0,"x_max":637,"o":"m 63 -162 q 29 -149 44 -162 q 12 -111 14 -136 q 25 -78 12 -92 q 57 -60 37 -64 q 137 -55 82 -57 l 137 -39 q 120 286 137 108 q 70 652 102 471 q 2 953 41 818 q 0 966 0 960 q 10 997 0 983 q 37 1016 20 1011 q 51 1018 44 1018 q 82 1008 68 1018 q 100 981 96 998 q 150 669 133 861 q 175 60 175 384 l 174 -54 q 260 -53 214 -53 q 391 -55 324 -53 q 635 -102 604 -64 q 637 -113 637 -107 q 629 -128 637 -121 q 619 -131 625 -131 q 604 -123 610 -131 q 494 -87 580 -87 q 394 -96 448 -87 q 195 -135 291 -112 l 178 -139 q 63 -162 90 -160 z "},"M":{"ha":850,"x_min":0,"x_max":810,"o":"m 792 -8 q 779 -3 785 -8 q 773 9 774 2 q 753 348 764 201 q 701 802 729 656 q 648 922 677 922 q 629 911 639 922 q 583 803 605 881 q 524 546 548 683 q 494 350 499 409 q 487 337 493 341 q 475 333 481 333 q 461 337 467 333 q 455 350 456 341 q 446 422 454 368 q 368 802 412 643 q 313 917 341 892 q 301 922 307 922 q 273 894 287 922 q 197 348 231 804 q 176 9 185 201 q 170 -3 175 2 q 158 -8 165 -8 l 154 -8 q 141 -2 146 -8 q 136 11 136 3 l 136 41 q 113 351 136 162 q 71 631 95 492 q 2 953 38 826 q 0 967 0 960 q 10 998 0 984 q 37 1016 20 1011 q 51 1018 44 1018 q 81 1008 68 1018 q 100 981 95 998 q 164 404 144 817 q 212 809 186 674 q 260 973 233 919 q 323 1036 291 1036 q 392 965 359 1036 q 435 823 417 907 q 475 553 461 692 q 513 814 488 688 q 557 965 531 905 q 627 1036 590 1036 q 736 809 692 1036 q 810 11 780 588 q 805 -2 810 3 q 792 -8 800 -7 z "},"N":{"ha":585,"x_min":0,"x_max":548,"o":"m 525 -8 q 512 -2 517 -8 q 507 11 507 3 q 508 77 508 43 q 495 354 508 203 q 454 677 477 560 q 379 864 419 852 q 370 866 374 866 q 319 815 345 866 q 271 679 294 764 q 208 350 234 538 q 174 8 183 176 q 168 -3 173 1 q 155 -8 163 -8 q 141 -3 146 -8 q 136 9 136 3 l 136 34 q 113 351 136 156 q 71 631 96 492 q 2 953 38 826 q 0 966 0 960 q 10 997 0 983 q 37 1016 20 1011 q 51 1018 44 1018 q 82 1008 68 1018 q 100 981 96 998 q 165 382 144 811 q 225 688 189 554 q 310 922 264 836 q 400 1008 356 1008 l 405 1008 q 473 929 442 1006 q 524 690 503 852 q 546 352 541 555 q 548 225 548 288 q 538 -3 548 5 q 525 -8 532 -8 z "},"O":{"ha":488,"x_min":0,"x_max":464,"o":"m 259 26 q 275 29 267 26 q 368 140 331 50 q 419 353 404 230 q 428 503 428 427 q 408 711 428 612 q 358 852 391 795 q 273 925 324 909 q 242 930 258 930 q 130 859 178 930 q 92 721 92 802 q 114 601 92 665 q 132 628 119 618 q 163 638 146 638 q 201 621 189 636 q 214 587 214 606 l 214 580 l 196 463 q 359 320 256 390 q 368 304 368 313 q 365 294 368 299 q 349 286 358 286 q 339 290 345 286 q 189 408 252 348 l 183 344 q 178 243 178 288 q 202 78 178 130 q 259 26 226 26 m 252 -10 q 175 28 211 -10 q 117 144 139 66 q 94 351 94 222 q 102 505 94 434 q 0 770 0 640 q 38 912 0 852 q 111 987 67 960 q 204 1015 155 1015 q 276 998 240 1015 q 380 892 339 968 q 443 714 422 817 q 464 490 464 605 q 456 351 464 420 q 395 113 441 212 q 275 -7 349 14 q 252 -10 263 -10 z "},"P":{"ha":515,"x_min":0,"x_max":545,"o":"m 154 -8 q 141 -2 146 -7 q 136 10 136 3 q 136 56 136 33 q 129 204 136 128 q 71 631 108 425 q 2 953 38 826 q 0 966 0 960 q 10 997 0 983 q 37 1016 20 1011 q 51 1018 44 1018 q 82 1008 68 1018 q 100 981 96 998 q 163 426 142 819 q 217 781 185 650 q 280 958 246 904 q 349 1011 315 1011 q 432 946 393 1009 q 496 796 469 886 q 545 488 542 646 q 520 332 545 397 q 443 256 496 267 q 427 255 435 255 q 267 337 363 255 q 260 351 260 343 q 266 363 260 357 q 279 369 271 369 q 290 365 285 369 q 387 314 349 314 q 416 321 403 314 q 456 389 444 340 q 469 502 469 438 q 429 767 468 642 q 392 854 413 820 q 347 894 371 888 l 340 895 q 299 864 320 895 q 195 355 233 768 q 173 9 179 183 q 168 -3 173 3 q 154 -8 162 -8 z "},"Q":{"ha":508,"x_min":0,"x_max":485,"o":"m 204 147 q 300 190 250 190 q 389 155 347 190 q 425 275 411 209 q 446 517 446 393 q 436 678 446 600 q 397 832 422 772 q 337 919 371 891 q 266 947 302 947 l 254 947 q 143 868 193 939 q 74 676 93 797 q 68 602 68 640 q 115 385 68 489 q 131 595 120 530 q 149 626 134 614 q 182 638 163 638 q 220 621 207 636 q 233 587 233 606 l 229 559 q 200 255 203 395 q 229 224 214 239 q 234 211 234 218 q 228 198 234 204 q 216 193 222 193 q 203 198 208 193 l 200 200 q 204 147 201 172 m 272 23 q 288 26 279 23 q 370 116 331 42 q 338 129 355 129 q 296 108 318 129 q 248 31 272 84 q 272 23 259 23 m 450 -148 l 448 -148 q 436 -142 440 -146 q 431 -130 431 -137 l 431 -127 q 434 -84 434 -106 q 427 -8 434 -46 q 396 82 417 45 q 271 -12 338 -12 q 214 9 241 -12 l 203 7 q 184 12 194 7 q 162 32 170 19 q 154 58 154 44 q 160 83 154 71 q 116 299 124 159 q 0 644 0 465 q 3 695 0 670 q 89 927 20 843 q 240 1010 158 1010 l 250 1010 q 383 928 322 1006 q 471 688 444 850 q 485 507 485 599 q 462 268 485 383 q 418 124 445 183 q 467 -5 454 75 q 472 -68 472 -35 q 462 -143 472 -134 q 450 -148 457 -148 z "},"R":{"ha":562,"x_min":0,"x_max":705,"o":"m 595 -188 q 545 -180 571 -188 q 369 -16 450 -148 q 269 197 307 87 q 229 342 241 280 l 229 351 q 240 383 229 369 q 279 401 255 401 q 312 390 298 401 q 330 360 326 379 q 356 319 336 334 q 400 304 376 304 q 437 316 420 304 q 463 353 454 328 q 474 466 474 397 q 450 705 474 574 q 390 902 427 830 q 341 947 366 947 q 298 909 319 947 q 226 641 252 815 q 189 290 200 467 q 174 9 177 113 q 168 -3 173 2 q 154 -8 162 -8 q 141 -2 146 -8 q 136 11 136 3 l 136 41 q 113 351 136 162 q 71 631 95 492 q 2 953 38 826 q 0 967 0 960 q 10 998 0 984 q 37 1016 20 1011 q 51 1018 44 1018 q 81 1008 68 1018 q 100 981 95 998 q 148 646 130 865 q 162 433 157 541 q 190 650 173 545 q 264 926 216 817 q 359 1018 309 1018 q 448 945 405 1018 q 527 717 500 856 q 545 538 545 625 q 513 352 545 423 q 410 269 475 269 q 342 286 377 269 l 353 220 q 411 5 372 110 q 555 -149 463 -123 q 585 -153 570 -153 q 641 -131 617 -153 q 668 -60 664 -109 q 674 -47 669 -52 q 687 -43 679 -43 q 700 -48 695 -43 q 705 -61 705 -54 q 668 -158 699 -128 q 595 -188 637 -188 z "},"S":{"ha":500,"x_min":0,"x_max":452,"o":"m 296 -227 q 334 -217 315 -227 q 364 -184 352 -206 q 376 -127 376 -162 l 375 -115 q 338 14 372 -64 q 221 -152 221 -77 q 237 -199 221 -180 q 296 -227 260 -227 m 300 -262 q 262 -256 281 -262 q 205 -219 228 -245 q 182 -153 182 -192 q 321 47 182 -59 q 208 243 272 142 q 124 387 161 322 q 43 560 79 469 q 0 762 0 673 q 13 847 0 806 q 56 920 26 887 q 124 967 85 952 q 205 982 163 982 q 318 956 263 982 q 409 880 373 929 q 448 755 448 828 q 418 629 448 698 q 401 619 412 619 q 394 621 398 619 q 384 637 384 627 q 385 645 384 641 q 409 747 409 700 q 379 852 409 807 q 304 923 349 898 q 214 948 258 948 q 124 911 159 948 q 86 799 86 869 q 134 599 86 718 q 261 343 178 491 l 288 295 q 385 92 344 193 l 412 108 q 424 114 418 111 q 434 117 429 117 q 450 109 444 117 q 452 99 452 104 q 443 83 452 90 l 398 56 q 428 -100 428 -36 l 427 -120 q 405 -202 423 -170 q 358 -248 386 -233 q 300 -262 330 -262 z "},"T":{"ha":636,"x_min":0,"x_max":870,"o":"m 503 -8 q 493 -5 498 -8 q 484 10 484 0 l 483 44 q 485 132 483 113 q 462 528 481 323 q 388 743 435 667 q 260 848 340 819 q 50 877 180 877 q 13 893 25 877 q 0 928 0 909 q 13 963 0 947 q 50 979 25 979 q 210 968 130 979 q 368 943 290 957 l 413 936 l 409 967 q 422 1001 409 985 q 460 1018 435 1016 q 493 1006 479 1018 q 511 974 507 994 q 517 920 515 948 q 675 909 595 909 q 848 928 760 909 l 851 928 q 863 924 858 928 q 870 909 869 920 q 866 898 870 903 q 856 892 863 893 q 522 873 755 874 q 532 556 532 725 q 523 106 532 387 l 520 12 l 521 12 l 521 10 q 516 -2 521 3 q 503 -8 511 -7 m 443 709 q 422 873 433 793 l 307 874 q 443 709 396 810 z "},"U":{"ha":532,"x_min":0,"x_max":501,"o":"m 155 -13 l 154 -13 q 99 41 125 -13 q 51 213 73 95 q 0 903 0 517 q 1 973 0 951 q 17 1008 3 995 q 52 1022 32 1022 q 89 1006 74 1021 q 103 970 103 991 l 103 968 q 98 856 101 941 q 89 493 89 665 q 98 218 89 347 q 153 24 115 24 q 260 254 197 24 q 337 594 309 431 q 363 793 353 692 q 373 972 370 880 q 389 1008 374 994 q 425 1022 404 1022 q 461 1006 447 1021 q 475 970 475 991 l 468 895 q 445 563 452 749 q 438 313 439 433 q 450 130 438 208 q 494 25 461 52 q 501 10 501 18 q 498 -1 501 4 q 483 -8 491 -8 q 472 -5 477 -8 q 416 121 437 25 q 373 588 380 286 q 295 244 331 374 q 227 57 262 125 q 155 -13 191 -11 z "},"V":{"ha":442,"x_min":0,"x_max":633,"o":"m 264 1 q 202 79 237 1 q 121 338 168 157 q 44 675 76 514 q 0 909 2 886 q 12 942 0 928 q 51 960 25 958 q 83 949 68 960 q 101 918 98 937 l 109 874 q 199 353 155 588 q 277 106 247 106 q 310 165 294 106 q 345 319 326 224 q 400 556 368 429 q 481 797 432 683 q 603 980 530 911 q 615 985 609 985 q 628 980 623 985 q 633 967 633 974 q 627 954 633 960 q 518 786 564 892 q 439 555 472 680 q 379 313 406 430 q 341 155 359 225 q 304 43 323 85 q 264 1 286 1 z "},"W":{"ha":664,"x_min":0,"x_max":692,"o":"m 271 -8 q 216 102 244 -8 q 165 348 185 226 l 148 443 q 5 886 106 686 q 0 909 0 898 q 28 956 0 938 q 51 961 39 961 q 97 932 79 961 q 173 726 149 827 q 212 454 205 589 l 217 391 q 252 115 224 252 q 273 68 262 68 q 327 268 298 68 q 414 558 367 558 q 494 376 450 558 q 538 159 508 310 q 551 123 545 123 q 566 191 559 123 q 580 396 570 251 q 627 875 598 725 q 674 985 648 985 q 684 982 680 985 q 692 966 692 976 q 690 957 692 962 q 640 707 659 905 q 623 496 630 606 q 598 214 609 300 q 547 61 579 61 q 489 146 524 61 q 441 296 461 220 l 427 349 q 397 409 410 409 q 377 374 388 409 q 361 292 371 349 q 328 116 342 180 q 271 -8 300 -8 z "},"X":{"ha":664,"x_min":0,"x_max":879,"o":"m 781 -160 q 591 -24 688 -160 q 420 279 503 101 l 339 452 q 167 5 237 251 q 149 -8 161 -8 l 144 -7 q 131 10 131 -2 l 132 15 q 307 521 201 261 q 195 739 251 642 q 33 920 108 888 q 8 939 17 926 q 0 967 0 951 q 3 985 0 976 q 52 1018 20 1018 q 70 1015 60 1018 q 251 811 159 978 q 345 612 300 720 q 532 992 436 825 q 576 1018 550 1018 q 602 1011 589 1018 q 627 966 627 993 q 621 941 627 954 q 505 745 560 836 q 380 528 439 634 l 472 300 q 620 -3 544 120 q 776 -125 699 -125 q 850 -98 812 -125 q 861 -94 854 -94 q 876 -102 869 -94 q 879 -113 879 -106 q 871 -127 879 -121 q 781 -160 825 -160 z "},"Y":{"ha":530,"x_min":0,"x_max":473,"o":"m 223 -691 q 172 -671 195 -691 q 125 -549 125 -629 q 186 -380 125 -462 q 373 -243 244 -302 q 383 -242 378 -242 q 390 28 390 -115 q 380 493 390 213 l 378 591 q 298 248 345 410 q 220 47 262 123 q 150 -14 184 -14 q 45 206 86 -14 q 15 446 24 316 q 0 848 0 642 q 2 974 0 939 q 18 1008 3 995 q 53 1022 33 1022 q 89 1006 75 1021 q 104 970 104 991 l 100 871 q 94 545 94 705 q 104 221 94 376 q 156 24 120 24 q 193 63 174 24 q 267 264 234 141 q 344 611 319 450 q 371 968 368 775 q 387 1004 372 989 q 423 1018 402 1018 q 459 1002 445 1017 q 473 966 473 987 q 472 774 472 877 l 472 539 q 467 157 472 353 q 432 -285 460 -80 q 370 -536 408 -445 q 296 -655 335 -619 q 223 -691 258 -691 m 229 -652 q 286 -620 256 -652 q 340 -513 315 -588 q 380 -281 368 -429 q 218 -399 268 -334 q 160 -548 160 -472 q 193 -638 160 -608 q 229 -652 209 -652 z "},"Z":{"ha":467,"x_min":0,"x_max":700,"o":"m 372 -361 q 195 -316 276 -361 q 95 -222 135 -282 q 46 -39 46 -146 q 49 12 46 -15 q 93 197 61 113 q 170 356 125 280 q 92 368 131 368 q 25 355 58 368 q 18 353 22 353 q 1 364 7 353 q 0 372 0 368 q 10 388 0 382 q 93 406 53 406 q 189 389 134 406 l 225 448 q 326 621 277 530 q 395 826 391 750 l 395 842 q 374 912 395 889 q 317 936 353 936 q 245 918 286 936 q 49 745 153 878 q 35 737 43 737 q 23 741 28 737 q 16 756 16 748 q 19 767 16 762 q 223 948 126 905 q 315 971 273 971 q 406 933 370 971 q 447 800 447 888 q 399 583 447 711 q 288 361 351 467 q 334 355 311 355 q 395 368 364 355 q 402 369 399 369 q 420 351 417 369 q 409 334 420 340 q 332 319 370 319 q 269 327 300 319 q 190 175 227 252 q 134 12 154 98 q 122 -86 122 -42 q 144 -196 122 -151 q 220 -284 171 -253 q 368 -325 283 -325 q 552 -270 464 -325 q 663 -109 640 -215 q 670 -98 665 -102 q 682 -94 675 -94 q 695 -100 690 -95 q 700 -113 700 -106 l 699 -116 q 654 -225 687 -178 q 573 -304 621 -273 q 372 -361 479 -361 z "},"[":{"ha":393,"x_min":34,"x_max":359,"o":"m 153 1 l 117 1 q 53 13 71 3 q 35 50 35 22 q 47 125 35 76 q 83 475 83 298 q 50 818 82 649 l 46 841 q 34 923 34 893 q 62 969 34 958 q 165 979 90 979 l 230 979 q 340 978 277 978 q 353 972 348 978 q 359 960 359 967 q 353 947 359 952 q 340 941 348 941 q 204 918 251 941 q 126 814 141 888 q 115 696 118 778 q 112 505 112 615 q 119 218 112 322 q 134 136 122 171 q 173 79 146 101 q 340 39 218 39 q 353 34 348 39 q 359 21 359 28 q 353 8 359 14 q 340 3 348 3 q 220 1 271 3 l 153 1 z "},"\\":{"ha":425,"x_min":34,"x_max":391,"o":"m 373 3 q 356 14 361 3 q 268 222 313 118 q 155 496 209 358 q 35 888 78 688 l 34 898 q 45 930 34 916 q 84 949 60 949 q 116 938 102 949 q 134 908 130 926 q 224 523 175 705 q 390 28 288 281 q 391 21 391 24 q 380 4 391 9 q 373 3 376 3 z "},"]":{"ha":393,"x_min":34,"x_max":359,"o":"m 239 1 l 173 1 q 52 3 122 3 q 39 8 45 3 q 34 21 34 14 q 39 34 34 28 q 52 39 45 39 q 220 79 176 39 q 274 218 271 123 q 281 505 281 322 q 277 696 281 614 q 266 814 274 778 q 188 918 252 888 q 52 941 142 941 q 39 947 45 941 q 34 960 34 952 q 39 972 34 967 q 52 978 45 978 q 162 979 115 978 l 227 979 q 331 969 303 979 q 359 923 359 958 q 347 841 359 893 l 342 818 q 310 475 311 649 q 346 125 310 298 q 357 50 357 76 q 340 13 357 22 q 276 1 322 3 l 239 1 z "},"^":{"ha":190,"x_min":34,"x_max":156,"o":"m 138 977 q 126 980 132 977 q 120 991 121 984 q 95 1053 104 1053 q 70 991 85 1052 q 63 980 68 984 q 52 977 58 977 q 38 983 42 978 q 34 995 34 989 l 35 1000 q 66 1135 53 1069 l 78 1188 q 90 1216 84 1216 q 128 1103 101 1216 q 156 995 155 1000 q 152 983 156 989 q 138 977 148 978 z "},"_":{"ha":422,"x_min":34,"x_max":388,"o":"m 352 9 l 70 9 q 44 19 55 9 q 34 45 34 30 q 44 70 34 59 q 70 80 55 80 l 352 80 q 377 70 367 80 q 388 45 388 59 q 377 19 388 30 q 352 9 367 9 z "},"`":{"ha":172,"x_min":34,"x_max":138,"o":"m 119 983 q 104 993 110 983 q 70 1034 87 1020 q 39 1071 52 1047 q 34 1088 34 1080 q 52 1120 34 1107 q 69 1124 60 1124 q 100 1106 88 1124 q 118 1057 115 1078 q 135 1011 121 1036 q 138 1002 138 1006 q 128 986 138 992 q 119 983 123 983 z "},"a":{"ha":311,"x_min":0,"x_max":288,"o":"m 74 -9 q 19 37 39 -9 q 0 146 0 84 q 10 233 0 190 q 41 312 20 277 q 135 377 84 377 q 236 317 186 377 q 240 306 240 312 q 235 293 240 298 q 222 288 229 288 q 208 294 214 288 q 159 328 179 328 q 134 312 144 328 q 115 271 123 296 q 91 172 101 228 q 81 77 81 116 q 95 35 81 35 q 124 62 105 35 q 186 180 155 112 q 176 233 176 218 q 193 267 178 254 q 227 280 208 280 q 264 264 250 279 q 278 229 278 250 q 276 205 278 222 q 267 73 267 125 q 275 28 267 31 q 288 9 288 22 q 269 -8 287 -8 l 263 -7 q 233 39 250 -1 q 201 127 216 79 q 146 39 176 77 q 74 -9 106 -9 z "},"b":{"ha":444,"x_min":-16,"x_max":416,"o":"m 327 -50 q 233 15 283 -50 q 178 100 197 62 q 176 109 176 104 q 186 125 176 119 q 195 127 190 127 q 211 117 204 127 q 228 86 214 111 q 262 35 242 62 q 313 -12 295 -12 q 333 58 333 -12 q 325 155 333 102 q 303 237 317 203 q 270 271 289 271 q 252 262 261 271 q 194 170 222 233 q 131 5 159 94 q 113 -8 125 -8 l 109 -8 q 93 1 100 -8 q 31 204 64 56 q -7 440 7 313 q -16 598 -16 528 q -11 701 -16 655 q 21 836 -1 784 q 72 910 43 887 q 132 934 101 934 q 170 925 151 934 q 233 860 208 907 q 258 747 258 814 q 227 605 258 683 q 71 397 186 505 q 84 220 75 302 q 111 60 95 120 q 159 182 131 120 q 226 290 189 247 q 298 329 264 329 q 347 309 324 329 q 385 255 369 288 q 408 182 400 222 q 416 110 416 146 q 396 9 416 54 q 327 -50 366 -50 m 69 446 q 188 624 155 535 q 216 766 216 697 q 201 852 216 818 q 161 888 186 886 q 115 843 138 888 q 78 696 92 798 q 68 509 68 621 l 69 446 z "},"c":{"ha":283,"x_min":0,"x_max":249,"o":"m 111 -14 q 65 4 85 -14 q 30 54 44 23 q 0 199 0 121 q 20 311 0 264 q 111 376 50 376 q 130 375 120 376 q 177 345 158 370 q 197 273 197 320 q 189 233 197 240 q 177 229 184 229 q 163 235 168 230 q 159 247 159 240 l 160 275 q 135 338 160 332 q 110 305 120 336 q 96 237 101 277 q 91 155 91 197 q 97 77 91 112 q 128 27 107 27 q 165 55 146 30 q 214 141 194 93 q 231 152 220 152 q 239 150 235 152 q 249 134 249 144 q 248 126 249 130 q 204 50 231 87 q 144 -5 177 12 q 111 -14 127 -14 z "},"d":{"ha":441,"x_min":0,"x_max":433,"o":"m 89 -50 q 20 9 50 -50 q 0 110 0 54 q 7 182 0 146 q 32 255 16 222 q 70 309 47 288 q 118 329 92 329 q 190 290 151 329 q 305 60 254 216 q 332 220 321 120 q 345 397 341 302 q 159 748 159 572 q 183 861 159 814 q 245 925 208 907 q 284 934 264 934 q 344 910 315 934 q 395 836 374 887 q 433 598 433 749 q 423 440 433 528 q 385 204 409 313 q 307 -8 337 -8 q 285 5 289 -8 q 260 78 276 33 q 165 262 208 218 q 146 271 155 271 q 113 237 127 271 q 92 155 99 203 q 83 56 83 100 q 102 -12 83 -12 q 126 2 113 -12 q 154 35 140 15 q 188 86 174 62 q 205 117 202 111 q 221 127 212 127 q 230 125 226 127 q 239 109 239 119 q 237 100 239 104 q 183 15 218 62 q 89 -50 132 -50 m 347 446 l 347 513 q 338 696 347 623 q 301 843 324 798 q 255 888 277 888 q 215 852 230 886 q 200 766 200 818 q 228 624 200 697 q 347 446 260 535 z "},"e":{"ha":271,"x_min":0,"x_max":249,"o":"m 98 249 l 123 254 q 159 262 140 258 l 160 277 q 135 338 160 332 q 98 249 110 334 m 111 -14 q 30 54 62 -14 q 0 199 0 121 q 20 311 0 264 q 111 376 50 376 q 177 345 153 376 q 197 273 197 320 q 195 242 197 250 q 185 231 193 235 q 161 225 178 228 l 93 210 q 91 157 91 183 q 97 77 91 113 q 128 27 107 27 q 165 55 146 30 q 214 141 192 91 q 231 152 220 152 q 239 150 235 152 q 249 134 249 144 q 248 126 249 130 q 204 50 231 87 q 144 -5 177 12 q 111 -14 126 -14 z "},"f":{"ha":291,"x_min":0,"x_max":309,"o":"m 74 -429 l 73 -429 q 22 -395 44 -429 q 0 -304 0 -361 q 1 -287 1 -295 q 7 -274 1 -279 q 20 -269 12 -269 q 33 -275 28 -270 q 37 -288 37 -280 l 37 -305 q 48 -369 37 -346 q 75 -391 60 -391 q 104 -363 91 -391 q 121 -233 121 -326 q 115 -79 121 -166 l 92 191 q 81 332 85 262 l 24 332 q 11 338 16 332 q 5 351 5 344 q 11 364 5 359 q 24 370 16 370 l 78 370 q 71 555 71 467 q 85 749 71 664 q 136 874 101 833 q 207 916 170 916 l 216 915 q 279 867 253 909 q 309 746 306 825 q 304 733 309 739 q 291 728 299 728 q 278 733 283 728 q 273 745 273 738 q 253 840 270 803 q 214 878 236 878 q 185 848 198 878 q 167 748 172 817 q 164 646 164 703 q 170 385 164 532 l 171 370 l 245 370 q 258 364 252 370 q 263 351 263 359 q 258 338 263 344 q 245 332 252 332 l 172 332 q 181 -13 181 136 q 166 -277 181 -180 q 127 -392 153 -356 q 74 -429 102 -429 z "},"g":{"ha":336,"x_min":-16,"x_max":307,"o":"m 104 -682 q 32 -652 64 -682 q -16 -530 -16 -606 q -3 -454 -16 -494 q 216 -248 41 -333 q 201 7 214 -115 q 190 110 195 62 q 155 53 174 79 q 116 8 136 26 q 76 -9 96 -9 q 38 13 56 -9 q 10 72 20 34 q 1 154 1 110 q 54 334 1 265 q 133 374 89 374 q 235 317 189 374 q 239 306 239 312 q 233 292 239 298 q 221 288 227 288 q 207 294 213 288 q 185 318 195 309 q 164 327 174 327 q 132 298 149 327 q 94 178 108 252 q 83 78 83 117 q 94 40 83 40 q 118 62 103 40 q 151 116 134 85 q 182 177 168 147 q 175 230 176 211 q 188 263 175 248 q 227 280 201 278 q 259 268 245 280 q 277 236 273 256 q 301 9 290 149 q 307 -160 307 -73 q 302 -293 307 -227 q 180 -650 279 -569 q 104 -682 142 -682 m 92 -647 q 145 -616 119 -647 q 216 -288 213 -541 q 71 -403 115 -340 q 21 -539 21 -470 q 55 -631 21 -600 q 92 -647 72 -647 z "},"h":{"ha":414,"x_min":-16,"x_max":380,"o":"m 349 -8 q 336 -2 340 -7 q 331 11 331 3 l 332 55 q 316 211 332 148 q 271 296 299 278 q 255 300 263 300 q 127 7 183 300 q 122 -3 126 1 q 111 -8 117 -7 q 31 204 79 -8 q -7 440 7 313 q -16 598 -16 528 q 21 836 -16 749 q 72 910 43 887 q 132 934 102 934 q 170 925 151 934 q 233 860 208 907 q 258 748 258 814 q 227 605 258 684 q 71 397 186 505 q 105 83 79 203 q 173 301 127 199 q 276 408 224 408 q 317 388 298 408 q 360 313 344 361 q 380 180 380 254 q 372 56 380 118 l 368 9 q 362 -3 367 1 q 349 -8 357 -8 m 69 446 q 188 624 155 535 q 216 766 216 697 q 201 852 216 818 q 161 888 186 886 q 115 843 138 888 q 78 696 92 798 q 68 509 68 621 l 69 446 z "},"i":{"ha":138,"x_min":0,"x_max":103,"o":"m 78 -8 q 61 3 67 -8 q 41 79 53 26 q 9 239 22 155 q 0 339 0 302 q 1 359 0 351 q 19 390 5 378 q 52 401 33 401 q 92 383 76 401 q 103 351 103 369 q 97 318 102 340 q 73 151 73 225 q 96 17 73 78 l 97 11 q 85 -7 97 -1 q 78 -8 81 -8 m 75 454 q 59 464 65 454 q 33 492 39 486 q 26 505 26 497 q 32 517 26 511 q 45 524 37 524 q 55 520 51 524 q 65 511 60 517 q 94 473 94 484 q 83 456 94 463 q 75 454 79 454 z "},"j":{"ha":225,"x_min":-125,"x_max":200,"o":"m -5 -667 q -79 -635 -46 -667 q -125 -515 -125 -589 q -66 -361 -125 -435 q 107 -233 -12 -291 l 106 -171 q 102 11 106 -83 q 71 286 97 159 q 57 312 67 304 q 18 321 46 321 q 5 326 11 321 q 0 339 0 332 q 5 352 0 347 q 18 357 11 357 l 98 359 q 128 361 116 361 q 160 352 153 361 q 168 314 166 342 l 176 235 q 200 -151 200 -5 q 198 -232 200 -192 q 141 -531 193 -397 q 71 -635 110 -604 q -5 -667 33 -667 m -16 -632 q 36 -602 9 -632 q 83 -503 63 -572 q 107 -273 107 -410 q -38 -389 7 -326 q -87 -524 -87 -455 q -63 -606 -87 -574 q -16 -632 -43 -632 z "},"k":{"ha":397,"x_min":-17,"x_max":376,"o":"m 107 -8 q 105 -7 106 -8 q 91 5 94 -5 q 31 204 62 62 q -7 440 7 313 q -17 598 -17 528 q 20 836 -17 749 q 72 910 42 887 q 131 934 101 934 q 170 925 151 934 q 232 860 207 907 q 257 748 257 814 q 226 605 257 684 q 71 397 185 505 q 104 83 80 197 q 241 371 157 303 q 310 401 279 401 q 359 380 341 400 q 376 334 376 360 q 356 282 376 309 q 245 226 328 245 q 274 137 263 184 l 279 114 q 295 53 287 78 q 314 28 302 28 q 336 47 323 28 q 351 56 342 56 q 361 53 357 56 q 370 37 370 47 q 367 27 370 32 q 315 -7 342 -7 q 214 78 268 -7 q 166 168 180 132 q 127 12 144 105 q 118 -6 127 1 q 107 -8 113 -8 m 224 260 q 263 278 252 267 q 275 296 275 288 q 262 308 275 307 q 214 271 239 308 q 224 260 220 267 m 69 446 q 187 624 155 535 q 216 766 216 697 q 200 852 216 818 q 161 888 185 886 q 114 843 138 888 q 78 696 91 798 q 68 513 68 623 l 69 446 z "},"l":{"ha":276,"x_min":-15,"x_max":258,"o":"m 142 -40 q 90 12 117 -40 q 34 197 58 79 q -15 598 -15 425 q -9 701 -15 655 q 22 836 0 784 q 73 910 44 887 q 133 934 102 934 q 172 925 153 934 q 234 861 209 907 q 258 748 258 814 q 73 397 258 572 q 81 273 75 333 l 85 220 q 91 175 86 209 q 103 101 96 141 q 122 33 111 61 q 146 1 135 1 q 168 33 159 1 q 181 110 176 66 q 186 186 186 153 l 184 220 q 189 232 184 227 q 202 239 193 238 q 220 223 216 239 q 224 177 224 202 q 213 80 224 131 q 184 -5 203 30 q 142 -40 166 -40 m 71 446 q 189 624 157 535 q 217 766 217 697 q 202 852 217 818 q 163 888 187 886 q 116 843 140 888 q 79 696 93 798 q 70 509 70 621 l 71 446 z "},"m":{"ha":492,"x_min":0,"x_max":473,"o":"m 454 -8 l 452 -8 q 380 91 405 1 q 359 186 367 140 q 349 235 354 215 q 334 263 342 263 q 319 245 328 263 q 281 165 302 212 q 285 137 285 148 q 271 114 285 114 q 252 126 262 114 q 241 156 241 139 l 242 165 q 186 254 215 254 q 175 251 180 254 q 131 172 151 232 q 107 88 117 131 q 88 6 99 55 q 82 -4 87 0 q 71 -8 77 -8 q 52 11 52 -5 q 27 186 47 87 l 19 232 q 0 348 1 328 q 14 384 0 368 q 51 399 28 399 q 85 386 71 399 q 102 353 100 373 q 103 316 103 338 q 100 214 103 273 q 185 377 144 377 q 225 340 205 377 q 267 223 245 303 l 284 262 q 389 424 359 424 q 404 412 398 424 q 418 275 416 382 l 418 237 q 425 100 419 161 q 457 28 433 33 q 468 22 464 27 q 473 10 473 17 q 467 -3 473 1 q 454 -8 461 -8 z "},"n":{"ha":310,"x_min":0,"x_max":290,"o":"m 272 -8 q 262 -5 267 -8 q 220 66 234 16 q 199 169 206 117 q 188 232 193 208 q 175 254 182 254 q 163 241 170 254 q 88 5 140 205 q 81 -4 86 -1 q 71 -8 77 -8 q 56 -1 60 -7 q 52 12 52 5 l 52 26 q 47 98 52 63 q 18 255 39 166 q 0 345 7 301 l 0 348 q 14 384 0 368 q 51 399 28 399 q 85 386 71 399 q 102 353 100 373 q 104 302 104 329 q 98 178 104 244 q 130 274 116 233 q 210 412 180 412 q 237 372 227 412 q 262 179 252 318 q 271 66 269 92 q 283 25 275 31 q 290 10 290 20 q 288 0 290 5 q 272 -8 281 -8 z "},"o":{"ha":247,"x_min":0,"x_max":215,"o":"m 124 24 q 137 31 130 24 q 180 191 176 80 q 160 288 180 254 q 119 322 141 322 q 102 315 110 322 q 78 266 85 302 l 81 265 q 112 248 100 262 q 124 215 124 233 l 117 157 q 150 129 130 142 q 158 114 158 123 q 155 104 158 109 q 140 96 149 96 q 117 107 134 96 l 111 111 q 109 73 109 89 q 124 24 109 24 m 115 -10 q 53 25 81 -10 q 18 129 24 60 l 18 156 q 20 207 18 183 q 0 278 0 245 q 16 334 0 310 q 56 368 31 357 q 94 376 74 376 q 144 360 119 376 q 188 309 170 345 q 215 171 215 257 q 196 58 215 106 q 138 -6 177 10 q 115 -10 127 -10 z "},"p":{"ha":377,"x_min":0,"x_max":350,"o":"m 108 -418 q 95 -412 100 -418 q 90 -399 90 -407 q 51 77 90 -163 q 1 340 29 207 l 0 351 q 11 383 0 369 q 40 401 22 397 l 51 402 q 82 391 68 402 q 100 361 96 380 q 126 97 122 255 l 134 152 q 240 411 176 411 q 282 382 262 411 q 318 307 302 353 q 350 111 350 207 q 342 36 350 69 q 282 -31 328 -31 q 176 31 241 -31 q 171 44 171 37 q 177 57 171 52 q 189 62 182 62 q 202 58 196 62 q 250 30 232 30 q 280 57 271 32 q 290 127 289 82 q 281 210 290 167 q 260 279 273 252 q 231 306 246 306 q 221 302 226 306 q 168 144 193 289 q 132 -241 146 19 l 126 -401 q 121 -413 126 -408 q 108 -418 115 -418 z "},"q":{"ha":314,"x_min":0,"x_max":414,"o":"m 385 -438 q 358 -425 372 -438 q 337 -404 348 -416 q 286 -368 303 -368 q 258 -405 268 -368 q 251 -415 256 -411 q 240 -418 246 -418 l 235 -418 q 222 -398 222 -413 q 229 -266 229 -328 q 228 -220 229 -242 q 203 11 222 -102 l 195 68 q 186 102 192 102 q 170 83 182 102 q 144 45 161 68 q 68 -9 105 -9 q 10 61 29 -9 q 0 151 0 102 q 11 246 0 199 q 42 328 21 293 q 94 374 62 362 q 121 379 108 379 q 181 360 153 379 q 230 317 210 342 q 234 306 234 312 q 227 292 234 298 q 216 288 222 288 q 201 294 208 288 q 182 316 191 307 q 162 326 172 326 q 138 311 151 326 q 98 221 115 280 q 68 66 69 133 q 80 34 68 34 q 116 68 92 34 q 157 130 142 102 q 172 195 172 158 q 170 222 172 208 l 170 229 q 183 263 170 248 q 222 280 196 278 q 254 268 240 280 q 283 20 283 243 q 274 -218 283 -96 l 266 -325 q 285 -321 276 -321 q 322 -338 307 -321 q 352 -379 340 -358 q 365 -398 360 -393 l 368 -399 q 377 -368 374 -399 q 383 -356 378 -361 q 395 -352 388 -352 q 409 -357 404 -352 q 414 -370 414 -363 l 414 -372 q 385 -438 407 -438 z "},"r":{"ha":312,"x_min":0,"x_max":300,"o":"m 113 -8 q 100 -2 105 -7 q 95 11 95 3 q 73 151 92 91 q 32 259 54 211 q 0 351 0 332 q 15 387 0 372 q 51 402 31 402 q 80 393 66 402 q 99 370 93 385 q 110 271 102 358 q 128 410 119 370 q 148 450 137 450 q 169 426 158 450 q 192 371 180 403 q 213 320 202 345 q 236 278 224 295 q 260 262 248 262 q 270 265 265 262 q 282 269 275 269 q 295 263 290 269 q 300 251 300 258 q 285 231 300 237 q 261 225 271 225 q 222 244 239 225 q 194 284 206 264 q 181 304 187 296 q 170 312 175 312 q 157 288 163 312 q 145 198 151 264 q 132 9 139 132 q 126 -3 132 2 q 113 -8 121 -8 z "},"s":{"ha":256,"x_min":0,"x_max":237,"o":"m 149 -92 q 94 -71 118 -92 q 69 -7 69 -50 q 76 38 69 14 q 83 48 78 44 q 94 52 87 52 l 98 51 q 112 33 112 45 l 111 28 q 106 -5 106 9 q 118 -44 106 -31 q 142 -56 129 -56 q 169 -42 159 -56 q 176 -15 176 -32 q 102 133 176 23 q 27 256 61 195 q 0 351 0 311 q 22 416 0 392 q 106 452 54 452 q 166 438 138 452 q 212 394 195 423 q 225 337 225 370 q 210 266 225 306 q 193 254 204 254 q 186 255 190 254 q 174 273 174 261 l 176 279 q 188 337 188 312 q 182 372 188 357 q 160 403 174 393 q 131 414 146 414 q 109 406 119 414 q 93 366 93 395 q 111 298 93 339 q 163 195 133 251 q 237 2 237 56 q 214 -63 237 -39 q 160 -91 191 -87 l 149 -92 z "},"t":{"ha":212,"x_min":-220,"x_max":526,"o":"m 224 -305 q 159 -281 191 -305 q 60 -88 91 -229 q 30 283 30 54 q 35 534 31 431 q -144 473 -105 495 q -169 467 -157 467 q -214 494 -196 467 q -220 519 -220 506 q -194 563 -220 545 q 39 605 -181 568 q 42 742 42 690 q 57 778 42 764 q 93 793 71 793 q 128 778 114 793 q 144 743 142 764 q 138 619 144 697 q 414 643 302 641 q 526 612 526 643 q 493 570 526 595 q 481 566 488 566 q 467 573 473 566 q 463 585 463 578 q 470 598 463 593 q 477 608 477 604 q 454 614 477 614 q 389 609 431 614 q 205 575 311 598 l 133 559 l 116 356 q 105 96 105 222 q 114 -78 105 -7 q 178 -248 129 -201 q 224 -269 199 -269 l 235 -267 q 281 -231 262 -260 q 312 -168 300 -202 q 329 -109 324 -133 q 335 -98 330 -102 q 346 -94 340 -94 q 360 -101 356 -96 q 365 -112 365 -106 q 344 -189 361 -139 q 245 -302 309 -284 q 224 -305 235 -305 z "},"u":{"ha":319,"x_min":0,"x_max":281,"o":"m 263 -8 q 255 -6 259 -8 q 188 156 217 14 q 163 78 177 115 q 132 17 149 41 q 98 -7 116 -7 q 41 75 68 -7 q 9 224 20 144 q 0 338 0 298 l 1 356 q 18 389 3 376 q 52 401 33 401 q 89 385 76 401 q 102 351 102 370 l 102 345 l 98 304 q 87 104 87 184 q 99 34 88 34 q 130 94 111 34 q 160 212 155 174 q 163 270 163 238 l 163 298 l 163 352 q 179 388 165 374 q 215 401 194 401 q 251 386 237 400 q 265 352 265 372 q 258 280 264 332 q 245 121 245 176 q 271 26 245 40 q 281 10 281 20 q 279 2 281 6 q 263 -8 273 -8 z "},"v":{"ha":297,"x_min":0,"x_max":276,"o":"m 153 -24 q 1 341 92 -24 l 0 351 q 11 383 0 369 q 41 401 22 397 l 52 402 q 83 391 69 402 q 101 361 97 379 q 134 161 122 249 q 148 66 141 102 q 163 31 155 31 q 239 354 184 31 q 246 365 241 361 q 258 370 251 370 q 272 363 267 368 q 276 351 276 357 l 276 348 q 216 72 245 169 q 153 -24 186 -24 z "},"w":{"ha":414,"x_min":0,"x_max":398,"o":"m 156 2 q 94 84 130 2 q 41 232 65 156 l 30 263 q 5 330 14 312 q 0 353 0 342 q 28 399 0 381 q 51 404 39 404 q 96 376 79 404 q 125 258 113 340 q 145 94 138 167 q 157 40 151 40 q 168 68 161 40 l 174 87 q 197 166 184 126 l 197 168 q 192 189 192 178 q 200 216 192 203 q 222 235 208 229 q 243 240 233 240 q 290 210 273 240 q 303 109 300 184 q 309 62 306 62 q 319 128 311 62 q 333 238 324 179 q 364 361 344 323 q 380 369 370 369 q 390 366 385 369 q 398 351 398 360 q 395 341 398 346 q 376 305 383 333 q 358 187 368 272 q 343 83 352 132 q 298 6 328 6 q 231 85 267 6 l 219 113 l 214 97 q 198 54 207 75 q 156 2 177 2 z "},"x":{"ha":347,"x_min":0,"x_max":323,"o":"m 302 -8 q 289 -3 294 -8 q 283 10 283 3 q 221 79 278 33 l 158 134 q 104 76 126 104 q 79 18 79 44 l 79 10 q 75 -2 79 3 q 61 -8 70 -8 q 49 -3 54 -8 q 43 12 43 2 q 75 94 43 41 q 124 165 97 127 q 56 236 87 199 q 1 345 12 290 l 0 351 q 14 385 0 370 q 52 402 27 400 q 85 389 71 402 q 102 357 100 376 q 123 280 102 320 q 162 218 139 250 q 203 288 185 254 q 222 352 220 321 q 237 387 223 373 q 273 401 252 401 q 309 387 294 401 q 323 351 323 372 q 307 297 323 324 q 197 172 279 248 q 245 116 222 142 q 299 53 277 80 q 320 10 320 26 q 315 -3 320 3 q 302 -8 309 -8 z "},"y":{"ha":349,"x_min":0,"x_max":324,"o":"m 121 -682 q 49 -652 81 -682 q 0 -530 0 -606 q 14 -454 0 -494 q 233 -248 57 -332 q 195 172 230 -67 l 182 125 q 101 -21 141 -21 q 50 54 75 -21 q 5 307 20 158 l 1 350 q 14 385 1 370 q 52 401 28 401 q 85 389 71 401 q 102 356 100 376 q 104 300 104 338 l 103 229 q 101 59 101 129 q 105 33 101 33 q 124 66 113 33 q 147 145 136 100 q 169 237 160 194 q 178 292 178 279 l 177 301 q 190 334 177 319 q 227 352 203 349 q 261 340 246 352 q 278 307 275 328 q 284 267 281 287 q 316 12 304 136 q 324 -164 324 -75 q 319 -293 324 -227 q 197 -650 294 -570 q 121 -682 158 -682 m 109 -647 q 162 -617 136 -647 q 208 -517 189 -587 q 233 -288 233 -437 q 87 -403 132 -340 q 38 -539 38 -470 q 72 -631 38 -600 q 109 -647 89 -647 z "},"z":{"ha":325,"x_min":0,"x_max":325,"o":"m 115 -648 q 170 -616 142 -648 q 216 -510 198 -584 q 233 -328 233 -441 l 233 -288 q 74 -419 117 -348 q 37 -535 37 -477 q 48 -594 37 -568 q 77 -634 59 -620 q 115 -648 94 -648 m 109 -684 q 53 -663 78 -684 q 0 -537 0 -619 q 43 -401 0 -468 q 231 -248 94 -315 q 229 -220 231 -233 q 162 -244 193 -244 q 106 -223 130 -244 q 62 -111 62 -182 q 111 51 62 -47 q 75 35 81 46 q 58 24 68 24 q 51 25 54 24 q 40 42 40 31 q 41 50 40 45 q 74 76 50 66 q 130 90 98 86 q 172 167 151 130 q 234 313 234 274 q 218 335 234 335 q 189 327 205 335 q 103 250 146 305 q 89 242 97 242 q 77 247 83 242 q 71 261 71 252 q 74 272 71 267 q 215 367 147 367 q 283 321 261 367 q 294 267 294 298 q 232 82 294 195 q 264 65 252 76 q 275 40 275 54 q 271 22 275 31 q 254 12 264 12 q 245 14 250 12 q 236 31 236 20 q 238 39 236 35 q 214 49 231 45 l 189 5 q 137 -91 157 -47 q 121 -155 121 -129 q 136 -199 121 -184 q 164 -210 149 -210 q 204 -189 185 -210 q 222 -122 222 -167 l 222 -111 q 236 -76 222 -91 q 271 -60 250 -62 q 309 -74 294 -60 q 324 -109 323 -88 l 325 -136 q 314 -291 325 -195 q 254 -538 293 -450 q 183 -650 222 -616 q 109 -684 144 -684 z "},"{":{"ha":380,"x_min":34,"x_max":347,"o":"m 296 -30 q 197 -3 232 -30 q 148 66 163 23 q 128 215 132 119 q 120 317 125 267 q 98 409 114 372 q 52 447 83 445 q 38 453 43 448 q 34 465 34 458 q 38 477 34 472 q 52 484 43 483 q 98 520 82 486 q 119 608 113 555 q 129 717 125 661 q 147 863 132 810 q 196 933 161 907 q 296 960 231 960 q 332 945 317 960 q 347 909 347 930 q 332 873 347 888 q 296 859 317 859 q 168 734 189 859 q 157 636 160 687 l 155 604 q 142 524 152 560 q 107 465 132 487 q 142 407 132 444 q 155 324 152 370 l 158 291 q 168 198 160 243 q 296 72 189 72 q 332 57 317 72 q 347 21 347 42 q 332 -15 347 0 q 296 -30 317 -30 z "},"|":{"ha":172,"x_min":34,"x_max":138,"o":"m 87 -30 q 51 -15 66 -30 q 36 21 36 0 q 45 183 36 115 q 62 418 62 315 q 45 671 62 534 q 34 852 34 769 q 49 888 34 873 q 85 903 64 903 q 121 888 106 903 q 136 852 136 873 l 136 840 q 126 676 136 747 q 110 433 110 539 q 128 178 110 321 q 138 21 137 111 q 123 -15 138 0 q 87 -30 109 -30 z "},"}":{"ha":380,"x_min":34,"x_max":347,"o":"m 85 -30 q 49 -15 64 -30 q 34 21 34 0 q 49 57 34 42 q 85 72 64 72 q 213 199 192 72 q 222 293 220 244 l 225 324 q 238 407 228 370 q 273 465 248 444 q 239 524 249 487 q 225 604 229 560 l 223 636 q 212 734 220 687 q 85 859 191 859 q 49 873 64 859 q 34 909 34 888 q 49 945 34 930 q 85 960 64 960 q 184 933 150 960 q 233 863 219 907 q 252 717 248 810 q 261 608 255 661 q 283 520 267 555 q 329 484 298 486 q 342 477 338 483 q 347 465 347 472 q 342 453 347 458 q 329 447 338 448 q 282 409 298 445 q 260 317 267 372 q 252 215 255 267 q 233 66 248 119 q 183 -3 218 23 q 85 -30 149 -30 z "},"~":{"ha":418,"x_min":34,"x_max":384,"o":"m 164 187 q 120 195 143 187 q 39 252 83 209 q 34 265 34 258 q 39 278 34 272 q 52 283 45 283 q 64 278 59 283 q 94 264 79 264 q 149 287 113 264 q 256 324 206 324 q 305 317 279 324 q 376 280 337 307 q 384 264 384 273 q 381 254 384 259 q 366 247 374 247 q 355 250 361 247 q 332 258 344 258 q 273 231 311 258 l 252 218 q 164 187 205 187 z "},"":{"ha":199,"x_min":34,"x_max":165,"o":"m 87 866 q 49 887 64 866 q 34 939 34 909 q 49 989 34 968 q 87 1010 64 1010 q 125 989 111 1010 q 140 939 140 968 q 125 887 140 909 q 87 866 111 866 m 87 3 q 71 5 79 3 q 45 24 55 11 q 36 54 36 38 q 39 70 36 62 q 80 339 80 194 q 71 517 79 429 q 63 686 63 602 q 69 797 63 741 q 75 808 71 804 q 87 812 80 812 q 101 806 97 812 q 106 793 106 801 q 100 696 100 742 q 110 561 100 625 q 134 438 121 498 l 144 389 q 165 214 165 288 q 136 37 165 125 q 117 12 130 21 q 87 3 104 3 z "},"":{"ha":373,"x_min":34,"x_max":339,"o":"m 199 -75 q 186 -70 192 -75 q 181 -58 181 -64 l 180 -3 q 117 29 147 -1 q 64 127 86 59 q 34 344 35 224 q 45 477 34 413 q 79 590 56 541 q 174 675 117 663 l 174 738 q 179 751 174 745 q 192 756 184 756 q 205 751 199 756 q 210 738 210 745 l 211 679 q 287 643 255 675 q 319 554 319 610 q 296 496 319 496 q 281 503 286 497 q 277 515 277 508 l 277 518 q 283 559 283 541 q 271 606 283 590 q 240 622 258 622 q 212 612 227 622 l 217 53 q 276 99 250 62 q 302 168 302 136 q 297 189 302 180 q 280 202 292 197 q 269 218 269 208 q 269 224 269 222 q 286 237 275 237 l 293 236 q 339 169 339 220 q 303 72 339 123 q 217 3 267 21 l 218 -57 q 212 -70 218 -64 q 199 -75 207 -75 m 180 60 l 176 433 l 175 571 l 172 566 l 164 549 q 123 330 129 458 l 122 288 q 137 142 122 208 q 180 60 153 77 z "},"":{"ha":441,"x_min":34,"x_max":407,"o":"m 113 -26 q 92 -22 102 -26 q 76 -7 82 -17 q 69 16 69 3 q 78 45 69 31 q 106 65 87 58 q 131 71 118 68 q 151 155 151 113 q 131 258 151 205 q 116 297 124 277 l 109 315 l 60 315 q 47 321 52 315 q 41 334 41 326 q 47 347 41 341 q 60 352 52 352 l 94 352 q 43 513 62 426 q 34 607 34 564 q 57 732 34 682 q 118 807 81 782 q 193 831 155 831 q 275 798 239 831 q 312 695 312 760 q 236 488 312 605 q 220 479 229 479 q 211 482 216 479 q 203 498 203 489 q 205 508 203 503 q 266 688 266 602 q 246 773 266 741 q 202 806 227 806 q 164 777 181 806 q 143 682 146 747 l 142 659 q 155 524 142 604 q 171 440 163 484 q 188 352 180 397 l 225 352 q 238 347 233 352 q 243 334 243 341 q 238 321 243 326 q 225 315 233 315 l 193 315 q 200 223 199 262 q 174 74 200 138 l 183 74 q 349 60 243 74 l 391 55 q 402 49 398 54 q 407 37 407 44 q 401 23 406 28 q 390 18 397 18 l 387 18 q 266 33 311 33 q 194 21 216 33 q 159 -4 172 9 q 140 -19 150 -13 q 113 -26 127 -26 z "},"":{"ha":298,"x_min":34,"x_max":264,"o":"m 241 218 q 227 227 233 218 q 215 243 221 235 q 165 230 194 230 q 134 234 151 230 q 87 255 106 241 l 67 226 q 52 218 60 218 q 41 221 46 218 q 34 237 34 228 q 37 247 34 242 l 62 282 q 42 347 43 311 q 66 416 42 383 l 37 456 q 34 466 34 460 q 41 481 34 475 q 52 485 46 485 q 67 477 60 485 l 93 440 q 132 457 109 452 q 166 462 150 462 q 208 452 190 462 l 227 479 q 242 486 233 486 q 252 484 248 486 q 260 468 260 477 q 257 458 260 463 l 237 429 q 264 347 264 393 l 264 344 q 241 269 264 302 l 257 247 q 260 237 260 242 q 252 222 260 228 q 241 218 247 218 m 125 290 l 132 291 q 177 311 161 295 q 193 346 193 327 q 178 380 193 365 q 125 401 161 399 q 90 384 102 401 q 78 345 78 367 q 90 307 79 323 q 125 290 102 290 z "},"":{"ha":415,"x_min":34,"x_max":381,"o":"m 146 9 q 86 49 109 9 q 68 131 68 79 q 73 186 68 156 q 80 197 75 193 q 92 201 85 201 q 105 195 100 201 q 110 182 110 189 l 110 180 q 106 132 106 153 q 115 76 106 98 q 148 45 127 45 q 189 78 168 45 q 223 182 210 111 q 233 254 229 216 l 197 254 q 184 260 190 254 q 179 273 179 265 q 184 286 179 280 q 197 291 190 291 l 236 291 q 237 315 236 303 l 197 315 q 184 321 190 315 q 179 334 179 326 q 184 347 179 341 q 197 352 190 352 l 239 352 q 241 456 241 405 q 185 363 216 391 q 147 346 167 346 q 94 389 118 346 q 47 576 60 463 q 34 754 34 680 l 34 762 q 49 797 34 783 q 85 812 64 812 q 121 796 107 810 q 136 760 136 781 q 134 725 136 753 q 125 526 127 631 q 134 410 125 456 q 151 385 140 385 q 186 423 165 385 q 236 597 232 509 q 237 627 237 612 q 221 764 237 694 l 220 774 q 231 806 220 791 q 271 825 246 825 q 303 814 289 825 q 321 785 317 803 q 340 555 340 695 l 338 494 q 328 352 336 423 l 363 352 q 376 347 370 352 q 381 334 381 341 q 376 321 381 326 q 363 315 370 315 l 323 315 l 319 291 l 363 291 q 376 286 370 291 q 381 273 381 280 q 376 260 381 265 q 363 254 370 254 l 311 254 q 291 176 303 214 q 222 50 262 91 q 146 9 182 9 z "},"":{"ha":172,"x_min":34,"x_max":138,"o":"m 87 -30 q 51 -15 66 -30 q 36 21 36 0 q 45 183 37 113 q 62 408 61 315 l 110 408 q 128 178 111 314 q 138 21 137 111 q 123 -15 138 0 q 87 -30 108 -30 m 109 445 l 62 445 q 45 671 61 538 q 34 852 35 750 q 49 888 34 873 q 85 903 64 903 q 121 888 106 903 q 136 852 136 873 q 125 676 135 753 q 109 445 111 539 z "},"":{"ha":357,"x_min":34,"x_max":323,"o":"m 177 41 l 165 42 q 100 62 127 45 q 73 114 73 80 l 74 122 q 80 134 75 130 q 93 138 85 138 q 105 132 101 137 q 110 121 110 127 l 110 113 q 122 86 110 94 q 150 77 134 77 l 160 78 q 205 108 190 83 q 210 130 210 119 q 202 159 210 144 q 181 187 194 173 q 155 216 169 201 q 115 260 134 236 q 62 366 74 304 l 61 376 q 77 430 61 404 q 114 481 92 457 q 155 524 135 505 l 146 530 q 34 690 34 620 q 66 755 34 730 q 118 782 87 772 q 178 791 148 791 l 192 791 q 257 771 230 788 q 283 720 283 753 l 283 711 q 277 699 282 704 q 264 694 272 694 q 251 701 256 696 q 247 712 247 705 l 247 720 q 235 747 247 738 q 208 755 223 755 q 152 725 170 755 q 146 703 146 714 q 155 674 146 688 q 176 645 163 660 q 203 615 189 631 q 242 574 223 595 q 295 467 283 530 l 296 456 q 201 309 296 397 q 207 306 205 307 q 210 302 209 304 q 323 142 323 214 q 291 78 323 102 q 238 51 269 60 q 177 41 208 41 m 162 345 q 220 372 192 345 q 248 432 248 399 q 228 476 248 455 q 194 490 212 490 q 136 462 163 490 q 109 401 109 433 q 130 357 109 377 q 162 345 145 345 z "},"":{"ha":227,"x_min":34,"x_max":193,"o":"m 73 1036 q 45 1047 56 1036 q 34 1075 34 1059 q 45 1102 34 1090 q 73 1114 56 1114 q 101 1102 90 1114 q 112 1075 112 1090 q 101 1047 112 1059 q 73 1036 90 1036 m 154 1036 q 126 1047 137 1036 q 115 1075 115 1059 q 126 1102 115 1091 q 154 1114 138 1114 q 181 1102 170 1114 q 193 1075 193 1091 q 181 1047 193 1059 q 154 1036 170 1036 z "},"":{"ha":671,"x_min":34,"x_max":637,"o":"m 336 58 q 184 99 252 58 q 75 208 115 140 q 34 360 34 277 q 75 511 34 443 q 184 621 115 580 q 336 661 252 661 q 488 620 419 661 q 596 511 556 579 q 637 360 637 442 q 596 208 637 277 q 487 99 555 140 q 336 58 419 58 m 317 205 q 219 279 243 205 q 210 341 210 309 l 210 361 q 237 456 215 413 q 296 517 260 500 q 326 523 310 523 q 413 477 368 523 l 426 463 q 430 451 430 457 q 422 437 430 443 q 411 433 417 433 q 397 439 404 433 q 370 459 382 459 q 347 447 358 459 q 309 361 321 416 q 304 321 304 340 q 315 273 304 294 q 353 252 326 252 q 403 267 372 252 q 413 270 409 270 q 429 260 423 270 q 431 252 431 256 q 421 235 431 241 l 416 233 q 317 205 358 205 m 336 130 q 498 197 431 130 q 566 360 566 264 q 498 522 566 455 q 336 589 431 589 q 220 558 273 589 q 137 476 168 528 q 106 360 106 424 q 137 244 106 296 q 220 161 168 192 q 336 130 273 130 z "},"":{"ha":258,"x_min":34,"x_max":224,"o":"m 83 651 q 46 682 59 651 q 34 755 34 713 q 61 865 34 819 q 123 908 90 908 q 191 869 157 908 q 193 861 193 865 q 189 852 193 856 q 181 848 185 848 q 172 853 176 848 q 140 876 153 876 q 122 865 130 876 q 110 838 115 854 q 94 772 101 809 q 87 709 87 734 q 97 681 87 684 q 116 699 103 681 q 157 778 137 732 q 151 812 151 802 q 161 835 151 826 q 184 844 172 844 q 209 833 200 843 q 218 810 218 823 l 216 783 q 211 706 211 735 q 216 676 211 678 q 224 665 224 673 l 224 661 q 212 652 220 652 l 209 653 q 167 742 192 661 q 131 684 151 709 q 83 651 103 651 z "},"":{"ha":577,"x_min":34,"x_max":543,"o":"m 508 9 q 482 19 494 9 l 289 212 l 96 19 q 71 9 84 9 q 45 19 56 9 q 34 45 34 31 q 45 70 34 58 l 238 263 l 45 456 q 34 482 34 468 q 45 507 34 496 q 71 518 56 518 q 96 507 84 518 l 289 314 l 482 507 q 508 518 494 518 q 533 507 522 518 q 543 482 543 496 q 533 456 543 468 l 340 263 l 533 70 q 543 45 543 58 q 533 19 543 31 q 508 9 522 9 z "},"":{"ha":268,"x_min":34,"x_max":234,"o":"m 216 193 l 52 193 q 39 198 45 193 q 34 211 34 203 q 39 224 34 218 q 52 229 45 229 l 216 229 q 229 224 223 229 q 234 211 234 218 q 229 198 234 203 q 216 193 223 193 m 136 9 q 79 33 102 9 q 56 89 56 56 q 79 146 56 123 q 136 169 103 169 q 192 146 168 169 q 216 89 216 123 q 193 33 216 56 q 136 9 170 9 m 136 80 q 142 83 139 80 q 144 89 144 85 q 142 95 144 92 q 136 97 139 97 q 130 95 132 97 q 127 89 127 92 q 130 83 127 85 q 136 80 132 80 m 136 251 q 79 274 103 251 q 56 331 56 298 q 79 388 56 364 q 136 411 102 411 q 192 388 169 411 q 216 331 216 364 q 193 275 216 298 q 136 251 170 251 m 136 322 q 142 325 139 322 q 144 331 144 328 q 142 337 144 334 q 136 339 139 339 q 130 337 132 339 q 127 331 127 334 q 130 325 127 328 q 136 322 132 322 z "},"":{"ha":220,"x_min":34,"x_max":186,"o":"m 141 851 q 116 884 123 851 q 111 921 111 904 q 123 967 111 954 q 149 980 135 980 q 178 966 165 980 q 186 943 186 956 q 177 918 186 930 q 153 907 168 907 l 149 907 q 155 882 151 887 q 160 869 160 877 q 155 857 160 863 q 141 851 149 851 m 64 851 q 51 857 57 851 q 34 922 35 873 q 45 967 34 954 q 71 980 57 980 q 100 966 87 980 q 109 944 109 956 q 99 918 109 930 q 76 907 90 907 l 71 907 q 77 882 73 888 q 82 869 82 876 q 76 857 82 863 q 64 851 71 851 z "},"":{"ha":220,"x_min":34,"x_max":186,"o":"m 71 851 q 42 865 55 851 q 34 888 34 876 q 43 913 34 902 q 66 924 52 924 l 71 924 q 65 948 69 943 q 60 962 60 954 q 66 974 60 968 q 78 980 71 980 q 91 975 85 980 q 108 909 106 958 q 96 864 108 878 q 71 851 85 851 m 149 851 q 119 865 132 851 q 111 888 111 876 q 120 913 111 902 q 144 924 130 924 l 149 924 q 143 949 146 943 q 138 962 138 955 q 142 975 138 968 q 156 980 149 980 q 182 947 174 980 q 186 909 185 930 q 174 864 186 878 q 149 851 162 851 z "},"":{"ha":548,"x_min":0,"x_max":530,"o":"m 378 248 l 399 252 l 441 261 l 441 275 q 434 319 441 302 q 416 336 427 336 q 378 248 392 332 m 391 -16 q 345 3 366 -16 q 311 52 325 21 q 281 198 281 120 q 302 309 281 262 q 391 374 331 374 q 411 373 401 374 q 459 343 439 369 q 478 272 478 318 q 476 241 478 249 q 467 230 474 233 q 443 224 459 227 l 374 209 q 372 155 372 182 q 378 75 372 111 q 409 26 387 26 q 446 54 427 28 q 496 140 473 90 q 513 150 502 150 q 520 149 516 150 q 530 132 530 142 q 529 124 530 128 q 485 48 512 86 q 426 -7 458 11 q 391 -16 408 -16 m 107 274 q 176 288 155 283 l 176 302 q 149 371 176 364 l 145 370 q 107 274 121 361 m 122 -16 q 71 5 94 -16 q 33 58 48 25 q 0 220 0 134 q 23 342 0 291 q 122 414 55 414 q 142 412 132 414 q 195 380 174 408 q 216 300 216 352 l 216 288 q 210 259 216 266 q 178 248 204 252 l 102 231 q 100 170 100 201 q 107 84 100 123 q 140 30 118 30 q 181 61 159 33 q 236 155 210 99 q 254 167 243 167 q 262 165 258 167 q 275 146 275 158 q 273 138 275 142 q 224 55 254 96 q 159 -6 195 14 q 122 -16 140 -16 z "},"":{"ha":680,"x_min":-17,"x_max":651,"o":"m 448 -684 q 376 -653 408 -684 q 328 -531 328 -608 q 387 -377 328 -452 q 560 -249 441 -307 q 545 6 557 -116 q 534 108 540 62 q 499 51 518 78 q 460 7 480 24 q 420 -10 440 -10 q 382 10 400 -10 q 354 71 363 33 q 345 153 345 109 q 398 332 345 263 q 477 372 433 372 q 579 316 532 372 q 583 304 583 311 q 577 291 583 296 q 566 286 572 286 q 551 293 557 286 q 529 316 539 307 q 508 326 518 326 q 476 297 492 326 q 439 176 452 250 q 428 74 428 114 q 438 39 428 39 q 463 61 447 39 q 495 114 478 83 q 526 176 511 146 q 519 220 523 202 l 519 227 q 532 261 519 245 q 570 279 545 277 q 604 267 589 279 q 621 235 618 254 q 645 7 634 148 q 651 -161 651 -75 q 646 -294 651 -228 q 524 -652 623 -571 q 448 -684 486 -684 m 437 -648 q 490 -618 463 -648 q 536 -519 517 -588 q 560 -290 560 -427 q 415 -404 460 -342 q 366 -541 366 -471 q 399 -633 366 -602 q 437 -648 416 -648 m 110 -684 q 34 -652 68 -684 q -17 -523 -17 -603 q -3 -444 -17 -485 q 228 -225 43 -315 q 200 151 224 -35 q 163 91 183 119 q 122 45 143 63 q 80 26 101 26 q 40 49 60 26 q 11 111 21 71 q 1 197 1 151 q 57 388 1 315 q 140 430 94 430 q 198 414 170 430 q 248 370 226 397 q 252 358 252 365 q 246 345 252 350 q 233 339 240 339 q 218 346 225 339 q 195 371 206 361 q 172 380 184 380 q 139 351 156 380 q 100 223 113 300 q 88 117 88 159 q 99 77 88 77 q 125 101 109 77 q 159 157 141 124 q 191 222 176 191 l 184 277 q 198 313 184 297 q 238 331 212 329 q 273 318 258 331 q 292 284 288 305 q 317 45 306 193 q 324 -135 324 -43 q 319 -273 324 -204 q 263 -540 304 -446 q 190 -650 231 -616 q 110 -684 149 -684 m 98 -646 q 153 -614 125 -646 q 228 -268 224 -535 q 75 -389 122 -324 q 22 -532 22 -460 q 58 -630 22 -597 q 98 -646 77 -646 z "},"":{"ha":540,"x_min":-20,"x_max":623,"o":"m 595 -103 q 378 170 499 -103 q 207 -7 290 -7 q 102 65 149 -7 q 26 267 56 137 q -20 615 -20 465 q 0 789 -20 721 q 51 889 20 857 q 116 922 82 922 q 175 895 147 922 q 221 815 203 867 q 239 689 239 764 q 119 264 239 503 q 89 208 105 237 q 203 29 134 29 q 283 82 243 31 q 359 214 323 134 q 312 349 332 279 q 261 659 261 522 q 281 809 261 749 q 331 899 300 869 q 395 929 361 929 q 453 902 425 929 q 499 822 481 876 q 517 688 517 768 q 452 350 517 544 q 413 247 435 296 q 464 94 435 165 q 527 -21 494 24 q 593 -66 561 -66 l 604 -65 q 623 -80 617 -65 l 623 -83 q 608 -102 623 -96 l 595 -103 m 81 271 q 169 503 143 393 q 194 697 194 613 q 176 831 194 781 q 134 882 157 882 q 101 850 117 882 q 74 751 85 819 q 64 574 64 683 q 81 271 64 450 m 398 309 l 414 351 q 477 690 477 537 q 456 836 477 784 q 410 888 435 888 q 369 841 387 888 q 351 691 351 793 q 360 543 351 628 q 398 309 370 447 z "},"":{"ha":503,"x_min":0,"x_max":474,"o":"m 384 22 q 396 30 389 22 q 425 85 414 49 q 439 191 439 134 q 420 287 439 252 q 379 321 401 321 q 337 264 349 321 l 340 264 q 372 246 359 260 q 384 214 384 232 l 383 206 q 376 155 380 189 q 409 127 390 141 q 417 113 417 121 q 414 102 417 107 q 399 94 408 94 q 389 97 393 94 l 371 110 q 369 71 369 87 q 384 22 369 22 m 374 -12 q 312 23 340 -12 q 278 127 284 58 l 277 155 q 280 205 277 181 q 259 277 259 244 q 275 333 259 309 q 315 367 291 356 q 353 375 334 375 q 404 359 378 375 q 474 170 474 315 q 455 57 474 104 q 397 -7 436 9 q 374 -12 386 -12 m 137 26 q 151 34 143 26 q 182 96 170 55 q 197 210 197 150 q 176 316 197 279 q 131 354 155 354 q 85 292 99 354 l 89 292 q 123 273 110 288 q 136 237 136 257 q 133 210 136 226 q 128 172 131 195 q 165 142 143 156 q 174 125 174 134 q 170 114 174 119 q 153 104 163 104 q 123 122 144 104 q 121 79 121 97 q 137 26 121 26 m 126 -12 q 58 27 89 -12 q 20 141 27 66 l 20 171 q 22 227 20 201 q 0 305 0 270 q 17 367 0 340 q 62 405 35 393 q 103 414 81 414 q 159 396 132 414 q 207 340 186 378 q 236 187 236 282 q 215 63 236 116 q 152 -7 195 11 q 126 -12 139 -12 z "},"":{"ha":614,"x_min":-32,"x_max":602,"o":"m 416 -9 q 402 -3 408 -9 q 397 9 397 2 q 354 210 393 115 l 333 262 q 302 349 302 330 q 311 378 302 365 q 335 397 319 391 q 353 400 345 400 q 382 392 369 400 q 401 368 395 383 q 412 270 404 359 q 429 401 420 360 q 450 448 439 448 q 466 434 458 448 q 494 370 476 416 q 527 294 510 328 q 563 260 546 260 q 573 264 568 260 q 584 267 578 267 q 600 259 593 267 q 602 249 602 254 q 594 234 602 240 q 564 223 578 223 q 529 238 544 223 q 496 283 514 254 q 483 303 489 295 q 473 311 477 311 q 465 303 468 311 q 434 7 450 275 q 428 -5 433 0 q 416 -9 423 -9 m 96 -9 q 81 -3 87 -9 q 75 12 75 3 q 26 237 71 130 q 3 296 15 268 q -28 374 -15 336 q -32 395 -32 385 q -22 427 -32 412 q 5 448 -12 441 q 26 452 16 452 q 58 443 43 452 q 79 416 73 433 q 92 305 83 405 q 111 454 102 407 q 135 506 122 506 q 153 490 144 506 q 182 422 163 471 q 222 334 201 374 q 261 295 243 295 q 273 299 267 295 q 286 302 279 302 q 303 294 296 302 q 307 283 307 288 q 297 264 307 272 q 263 253 279 253 q 224 270 241 253 q 186 320 207 288 q 172 342 179 334 q 160 351 165 351 q 151 342 155 351 q 133 237 142 325 q 117 10 126 161 q 110 -4 116 1 q 96 -9 104 -9 z "},"":{"ha":517,"x_min":-18,"x_max":482,"o":"m 393 -93 q 338 -72 363 -93 q 314 -8 314 -52 q 321 37 314 12 q 328 46 323 43 q 338 50 332 50 q 353 43 349 49 q 357 31 357 37 l 356 26 q 351 -7 351 7 q 362 -45 351 -33 q 387 -58 374 -58 q 414 -43 404 -58 q 421 -17 421 -33 q 410 26 421 1 q 351 124 388 70 l 342 138 q 272 254 304 197 q 244 350 244 310 q 267 415 244 391 q 352 451 299 451 q 411 436 382 451 q 456 393 439 422 q 470 335 470 369 q 455 264 470 304 q 438 252 450 252 q 431 254 435 252 q 419 271 419 259 l 420 277 q 432 336 432 311 q 427 371 432 356 q 404 402 418 391 q 376 412 390 412 q 354 405 363 412 q 338 364 338 394 q 355 296 338 338 q 396 216 373 258 l 414 182 q 475 43 454 109 q 482 1 482 20 q 459 -64 482 -41 q 404 -92 435 -88 l 393 -93 m 141 -93 q 82 -71 109 -93 q 56 -1 56 -48 q 82 60 56 60 q 98 52 92 60 q 102 41 102 47 l 101 35 q 96 -1 96 14 q 108 -42 96 -28 q 134 -55 120 -55 q 163 -40 152 -55 q 171 -11 171 -29 q 159 35 171 8 q 96 139 135 81 l 92 147 q 11 279 47 212 q -18 380 -18 338 q 5 450 -18 424 q 96 489 40 489 q 160 473 129 489 q 208 427 191 458 q 222 366 222 401 q 207 289 222 332 q 189 276 201 276 q 169 296 169 279 q 170 302 169 299 q 183 365 183 338 q 176 403 183 387 q 153 436 168 425 q 122 447 138 447 q 99 439 110 447 q 81 396 81 428 q 100 323 81 368 q 163 201 119 285 q 229 53 205 123 q 236 7 236 28 q 211 -62 236 -37 q 153 -92 186 -87 l 141 -93 z "},"":{"ha":600,"x_min":-246,"x_max":747,"o":"m 410 604 q 229 579 312 592 q 106 557 145 566 q 90 355 98 464 q 79 92 79 219 l 79 77 q 103 -177 80 -85 q 161 -269 126 -269 q 231 -185 193 -269 q 307 82 269 -101 q 328 180 315 121 q 372 390 349 275 q 410 604 395 505 m 417 648 q 425 740 425 705 l 425 741 q 439 776 425 762 q 475 791 453 790 q 510 777 496 791 q 526 741 525 763 q 524 654 526 700 q 600 656 564 656 q 720 645 680 656 q 741 624 741 638 q 709 581 741 608 q 697 577 703 577 q 683 585 689 577 q 679 596 679 590 q 686 610 679 604 q 693 620 693 616 q 690 624 693 623 q 663 627 684 627 q 522 616 618 627 q 509 472 516 545 q 498 355 503 411 q 488 94 488 220 l 488 77 q 496 -79 488 -8 q 526 -199 505 -151 q 560 -250 539 -229 q 606 -270 581 -270 q 617 -269 611 -270 q 664 -232 645 -261 q 695 -169 683 -203 q 711 -110 707 -134 q 718 -100 713 -104 q 728 -96 722 -96 l 733 -96 q 743 -102 739 -98 q 747 -113 747 -107 l 747 -118 q 726 -190 740 -151 q 688 -262 712 -230 q 628 -304 664 -294 q 608 -307 618 -307 q 542 -283 574 -307 q 490 -221 511 -259 q 443 -89 459 -166 q 419 80 426 -12 q 412 280 412 179 l 413 352 q 417 479 414 415 q 338 80 382 289 q 278 -141 309 -55 q 214 -267 246 -227 q 153 -307 182 -307 q 64 -204 102 -307 q 11 80 26 -102 q 3 282 3 180 l 4 352 q 9 532 5 448 q -79 507 -39 520 q -171 472 -143 488 q -195 466 -183 466 q -240 492 -222 466 q -246 517 -246 504 q -220 562 -246 543 q -183 569 -218 563 q -94 586 -149 576 q 12 603 -45 595 q 16 740 16 688 l 16 741 q 30 776 16 762 q 66 791 44 790 q 101 777 87 791 q 117 741 116 763 q 111 618 117 696 q 417 648 220 633 z "},"":{"ha":736,"x_min":-207,"x_max":688,"o":"m 494 621 q 433 612 467 617 l 378 603 q 376 507 376 559 l 376 445 q 494 621 461 532 m 380 646 q 506 653 447 652 q 517 697 513 675 q 523 764 523 733 q 508 849 523 817 q 473 886 494 882 l 469 886 q 422 842 446 886 q 385 694 399 797 q 380 646 382 672 m 173 621 q 292 636 216 627 q 296 699 293 670 q 328 834 306 782 q 379 909 350 886 q 439 932 409 932 q 477 924 458 932 q 540 859 515 905 q 565 747 565 812 q 551 652 565 703 q 598 646 578 650 q 630 622 630 640 q 598 581 630 606 q 587 576 593 576 q 572 584 578 576 q 568 595 568 589 q 576 610 568 604 q 582 618 582 614 q 555 625 581 625 l 541 625 q 534 604 538 614 q 378 395 493 504 q 391 218 382 301 q 412 81 400 138 q 480 300 434 197 q 534 381 508 357 q 583 406 560 406 q 625 387 606 406 q 667 312 651 360 q 687 210 684 264 l 688 182 q 680 57 688 120 q 675 7 677 32 q 669 -5 674 0 q 656 -9 664 -9 l 655 -9 q 643 -4 648 -9 q 638 9 638 1 l 638 10 q 639 54 639 33 q 623 210 639 146 q 578 294 606 277 q 562 298 570 298 q 513 260 538 298 q 435 5 471 197 q 420 -9 432 -7 l 416 -9 q 401 0 407 -9 q 338 203 372 54 q 300 439 315 312 q 291 587 292 520 q 271 583 281 585 q 146 557 191 568 q 139 474 142 517 q 130 355 134 416 q 118 92 118 219 l 118 77 q 127 -79 118 -8 q 157 -199 136 -151 q 191 -250 170 -229 q 237 -270 212 -270 q 248 -269 242 -270 q 295 -232 276 -261 q 326 -169 314 -203 q 342 -110 337 -134 q 348 -100 343 -104 q 359 -96 353 -96 l 364 -96 q 374 -103 370 -98 q 378 -114 378 -108 l 378 -118 q 357 -190 371 -151 q 319 -262 342 -230 q 259 -304 295 -294 q 239 -307 249 -307 q 173 -283 205 -307 q 120 -221 142 -259 q 74 -89 90 -166 q 50 80 57 -12 q 43 291 43 184 l 43 352 q 49 532 45 448 q -40 507 1 520 q -132 472 -103 488 q -156 466 -144 466 q -201 492 -183 466 q -207 517 -207 504 q -181 562 -207 543 q -54 586 -170 565 q 52 603 -6 595 q 52 624 52 614 q 55 726 55 684 l 55 740 q 69 775 55 761 q 105 791 83 790 q 142 777 127 791 q 157 741 157 762 l 157 731 q 151 618 157 687 q 173 621 159 618 z "},"":{"ha":652,"x_min":0,"x_max":623,"o":"m 408 -12 q 354 35 374 -12 q 335 144 335 82 q 345 231 335 187 q 376 309 355 275 q 420 359 397 343 q 470 376 444 376 q 571 316 521 376 q 575 304 575 311 q 569 291 575 296 q 557 286 563 286 q 543 293 549 286 q 494 326 514 326 q 469 311 479 326 q 450 269 458 295 q 426 171 436 227 q 416 75 416 115 q 430 33 416 33 q 459 61 440 33 q 520 179 490 111 q 511 229 511 215 q 527 265 513 252 q 561 279 542 279 q 600 262 586 277 q 613 229 613 248 l 609 190 q 602 72 602 117 q 610 26 602 29 q 623 9 623 20 l 621 3 q 614 -6 619 -3 q 604 -9 610 -9 q 598 -9 601 -9 q 535 125 574 3 q 481 37 511 75 q 408 -12 441 -12 m 80 -12 q 36 12 54 -12 q 9 75 18 36 q 0 160 0 115 q 11 256 0 208 q 44 341 22 304 q 94 396 67 378 q 149 414 120 414 q 259 349 203 414 q 264 336 264 342 q 256 320 264 328 q 243 316 250 316 q 228 323 235 316 q 175 360 197 360 q 146 343 158 360 q 125 297 134 326 q 100 189 111 250 q 89 85 89 127 q 104 37 89 37 q 136 68 115 37 q 203 198 170 123 q 193 253 193 238 q 211 293 195 278 q 249 308 227 308 q 290 289 275 306 q 305 252 305 273 l 304 240 q 293 81 293 142 q 302 30 293 33 q 315 11 315 24 l 315 4 q 296 -9 309 -9 l 289 -8 q 255 42 274 -1 q 220 139 236 85 q 160 42 193 85 q 80 -12 117 -12 z "},"":{"ha":892,"x_min":0,"x_max":864,"o":"m 775 -52 q 681 14 732 -52 q 627 99 646 60 q 625 107 625 103 q 634 123 625 117 q 643 125 638 125 q 659 116 652 125 q 676 85 662 110 q 710 33 690 60 q 762 -14 743 -14 q 781 56 781 -14 q 772 154 781 100 q 751 235 765 201 q 718 269 737 269 q 699 260 709 269 q 642 168 671 232 q 579 3 607 91 q 561 -9 574 -9 l 557 -9 q 541 0 549 -9 q 479 203 513 54 q 441 439 456 312 q 432 597 432 526 q 437 699 432 654 q 469 834 447 782 q 520 909 491 886 q 580 932 549 932 q 618 924 600 932 q 681 859 656 905 q 705 747 705 813 q 519 395 705 571 q 532 218 524 301 q 559 58 543 119 q 674 288 610 215 q 746 328 713 328 q 795 307 772 328 q 833 254 817 287 q 857 181 848 220 q 864 109 864 144 q 844 7 864 52 q 775 -52 814 -52 m 517 445 q 636 623 604 533 q 664 764 664 696 q 650 850 664 817 q 610 886 633 885 q 563 842 587 886 q 526 694 540 797 q 517 507 517 619 l 517 445 m 355 -52 q 258 16 310 -52 q 201 104 222 65 q 199 113 199 109 q 210 130 199 123 q 218 132 214 132 q 235 120 229 132 q 288 36 257 79 q 341 -12 322 -12 q 361 57 361 -12 q 353 161 361 104 q 330 245 345 210 q 296 280 315 280 q 277 271 287 280 q 218 175 247 241 q 153 5 180 92 q 134 -8 146 -8 l 130 -8 q 113 1 120 -8 q 50 211 83 58 q 9 455 24 324 q 0 618 0 545 q 38 863 0 775 q 92 941 61 917 q 154 966 122 966 q 193 956 174 966 q 258 889 232 937 q 283 773 283 842 q 91 410 283 592 q 104 227 94 313 q 132 62 115 124 q 251 300 186 225 q 325 340 291 340 q 375 319 353 340 q 414 264 398 298 q 439 189 431 230 q 447 115 447 151 q 427 9 447 56 q 355 -52 396 -52 m 89 461 q 240 791 240 618 q 225 880 240 846 q 184 918 209 916 q 152 898 168 918 q 121 834 135 878 q 88 526 88 732 l 89 461 z "},"":{"ha":572,"x_min":0,"x_max":538,"o":"m 399 -16 q 353 3 373 -16 q 318 52 332 21 q 288 198 288 120 q 309 309 288 262 q 399 374 338 374 q 418 373 408 374 q 466 343 446 369 q 486 271 486 318 q 484 243 486 258 q 477 232 482 236 q 464 227 471 227 q 451 234 456 229 q 447 245 447 239 l 448 274 q 424 336 448 330 q 385 237 397 332 q 379 153 379 195 q 386 75 379 110 q 416 26 394 26 q 453 54 434 28 q 503 140 482 92 q 519 150 509 150 q 527 149 524 150 q 538 132 538 142 q 536 124 538 128 q 493 48 519 86 q 433 -7 466 11 q 399 -16 415 -16 m 122 -16 q 71 5 94 -16 q 33 58 48 25 q 0 220 0 134 q 22 342 0 291 q 122 414 54 414 q 142 412 132 414 q 195 380 174 408 q 216 301 216 352 q 208 256 216 264 q 195 252 202 252 q 180 258 185 252 q 174 272 174 264 l 174 274 q 176 302 176 289 q 149 371 176 364 q 106 262 119 366 q 100 170 100 216 q 107 84 100 123 q 140 30 117 30 q 181 60 160 33 q 236 155 211 100 q 254 167 243 167 q 262 165 258 167 q 275 146 275 158 q 273 138 275 142 q 224 55 254 96 q 159 -6 195 14 q 122 -16 140 -16 z "},"":{"ha":878,"x_min":0,"x_max":869,"o":"m 526 -52 q 457 7 487 -52 q 437 109 437 52 q 469 254 437 188 q 506 307 484 287 q 555 328 528 328 q 627 288 588 328 q 743 58 688 218 q 769 218 758 119 q 782 395 778 301 q 627 604 668 504 q 595 747 595 682 q 621 859 595 812 q 683 924 646 905 q 722 932 702 932 q 781 909 751 932 q 832 834 810 886 q 864 699 854 782 q 869 597 869 654 q 860 439 869 526 q 822 203 846 312 q 744 -9 774 -9 l 741 -9 q 722 3 728 -9 q 659 168 696 87 q 602 260 631 232 q 583 269 592 269 q 550 235 564 269 q 528 154 536 201 q 520 54 520 98 q 540 -14 520 -14 q 591 33 558 -14 q 641 113 619 73 q 659 125 648 125 q 667 123 663 125 q 677 107 677 117 q 675 99 677 103 q 621 14 655 60 q 526 -52 570 -52 m 784 445 l 785 501 q 774 694 785 617 q 738 842 762 797 q 692 886 715 886 q 652 850 668 885 q 637 764 637 817 q 665 623 637 696 q 784 445 698 533 m 93 -52 q 21 9 52 -52 q 0 113 0 56 q 8 189 0 151 q 33 264 17 230 q 72 319 50 298 q 122 340 95 340 q 197 300 157 340 q 316 62 262 223 q 343 227 332 124 q 357 410 353 313 q 164 773 164 592 q 190 889 164 842 q 254 956 216 937 q 294 966 274 966 q 356 941 326 966 q 409 864 386 917 q 441 724 431 810 q 447 617 447 676 q 437 455 447 545 q 398 211 422 324 q 317 -8 348 -8 l 314 -8 q 295 5 301 -8 q 170 271 227 215 q 151 280 160 280 q 117 245 132 280 q 95 161 103 210 q 86 59 86 105 q 106 -12 86 -12 q 159 36 125 -12 q 212 120 190 79 q 229 132 218 132 q 238 130 233 132 q 248 113 248 123 q 246 104 248 109 q 190 16 227 65 q 93 -52 138 -52 m 359 461 l 359 526 q 349 720 359 642 q 326 834 340 791 q 296 898 312 878 q 263 918 279 918 q 222 880 239 916 q 207 791 207 846 q 236 645 207 721 q 359 461 269 553 z "},"":{"ha":559,"x_min":0,"x_max":602,"o":"m 80 -481 l 79 -481 q 24 -444 47 -481 q 0 -345 0 -408 q 1 -328 1 -336 q 7 -315 1 -320 q 21 -310 13 -310 q 35 -316 30 -311 q 41 -330 41 -321 l 40 -349 q 53 -417 40 -393 q 81 -441 65 -441 q 112 -410 98 -440 q 129 -317 125 -380 l 130 -269 q 123 -101 130 -196 q 106 98 116 -7 q 87 331 99 174 l 24 331 q 12 336 17 331 q 6 349 6 342 q 12 362 6 357 q 24 368 17 368 l 85 368 q 77 578 77 475 q 92 787 77 692 q 146 921 109 877 q 222 965 182 965 l 233 964 q 301 913 273 959 q 333 783 329 867 q 328 769 333 775 q 313 763 322 763 q 299 768 305 763 q 294 782 294 774 q 272 884 291 844 q 231 925 253 924 q 198 892 213 925 q 179 785 184 859 q 176 650 176 718 q 184 368 176 511 l 370 368 q 363 556 363 467 q 377 748 363 663 q 428 873 393 832 q 499 914 463 914 l 509 913 q 571 866 545 908 q 602 745 597 823 q 596 732 602 737 q 583 726 591 726 q 571 731 576 726 q 565 744 565 736 q 545 839 562 801 q 506 877 528 876 q 477 846 490 877 q 458 747 463 816 q 456 647 456 702 q 463 368 456 526 l 536 368 q 549 362 544 368 q 555 349 555 357 q 549 336 555 342 q 536 331 544 331 l 465 331 l 469 197 q 473 -6 473 92 q 458 -279 473 -179 q 419 -393 445 -357 q 365 -430 394 -429 q 314 -396 336 -430 q 292 -305 292 -362 q 293 -289 293 -296 q 299 -276 294 -281 q 311 -271 304 -271 q 325 -277 319 -271 q 330 -289 330 -282 l 329 -307 q 340 -370 329 -347 q 368 -393 352 -393 q 396 -364 383 -392 q 412 -233 412 -328 q 406 -74 412 -164 q 390 115 399 16 l 372 331 l 185 331 q 195 -32 195 123 q 191 -187 195 -114 q 178 -319 187 -260 q 137 -442 164 -403 q 80 -481 110 -481 z "},"":{"ha":814,"x_min":-22,"x_max":780,"o":"m 748 -9 q 735 -4 740 -9 q 730 9 730 1 l 732 59 q 715 210 732 149 q 670 294 699 277 q 654 298 663 298 q 528 5 583 298 q 521 -5 526 -1 q 509 -9 516 -9 q 431 203 478 -9 q 393 439 407 312 q 383 597 383 526 q 389 699 383 654 q 420 834 398 782 q 472 909 442 886 q 532 932 501 932 q 570 924 551 932 q 632 859 608 905 q 657 747 657 813 q 471 395 657 571 q 505 81 480 197 q 572 300 526 197 q 675 406 625 406 q 718 387 699 406 q 760 312 743 360 q 780 178 780 252 q 771 49 780 113 l 767 7 q 761 -5 766 0 q 748 -9 756 -9 m 469 445 q 588 623 555 533 q 616 764 616 696 q 602 850 616 817 q 561 886 585 885 q 515 842 538 886 q 478 694 492 797 q 469 512 469 621 l 469 445 m 355 -9 q 342 -3 347 -9 q 337 9 337 2 l 338 61 q 322 217 338 154 q 275 304 304 288 q 258 309 267 309 q 208 269 235 309 q 127 6 165 204 q 121 -5 125 0 q 109 -9 116 -9 q 27 210 77 -9 q -12 454 3 323 q -22 617 -22 545 q -16 724 -22 676 q 17 864 -6 810 q 70 941 39 917 q 132 966 100 966 q 171 956 151 966 q 235 889 210 937 q 261 772 261 841 q 68 410 261 591 q 82 228 73 312 q 104 85 91 143 q 174 311 126 204 q 281 420 227 420 q 323 400 304 420 q 368 323 351 373 q 388 185 388 261 q 379 52 388 118 l 375 8 q 369 -4 374 1 q 355 -9 363 -9 m 66 460 q 189 644 156 553 q 218 791 218 720 q 203 880 218 846 q 162 918 186 916 q 130 898 146 918 q 99 834 113 878 q 66 525 66 730 l 66 460 z "},"":{"ha":297,"x_min":0,"x_max":252,"o":"m 227 -9 q 210 2 216 -9 q 189 78 202 24 q 159 237 172 153 q 149 335 149 298 q 151 358 149 349 q 168 389 154 377 q 200 400 182 400 q 240 382 224 400 q 252 350 252 368 q 245 317 252 344 q 222 148 222 220 q 245 15 222 76 l 246 9 q 243 -1 246 3 q 235 -8 239 -6 q 227 -9 231 -9 m 224 453 q 208 463 214 453 q 182 490 208 463 q 176 504 176 496 q 181 516 176 510 q 194 522 186 522 q 235 488 206 522 q 242 471 242 478 q 233 455 242 461 q 224 453 229 453 m 85 -9 q 66 3 73 -9 q 44 86 58 28 q 10 261 24 169 q 0 368 0 328 q 1 393 0 383 q 21 427 5 414 q 56 439 37 439 q 100 419 83 439 q 113 384 113 404 q 106 350 113 376 q 80 162 80 245 q 104 18 80 84 q 106 11 106 14 q 93 -8 106 -1 q 85 -9 89 -9 m 82 496 q 64 507 71 496 l 54 519 q 36 536 39 534 q 29 552 29 543 q 33 565 29 559 q 49 572 40 572 q 61 568 56 572 q 83 546 71 559 q 102 517 102 527 q 92 499 102 506 q 82 496 87 496 z "},"":{"ha":1010,"x_min":0,"x_max":982,"o":"m 580 -10 l 576 -9 q 566 -2 570 -7 q 562 9 562 3 q 537 184 556 85 l 528 233 q 510 347 511 328 q 524 382 510 366 q 561 398 538 397 q 595 385 581 398 q 612 351 610 372 q 613 315 613 336 q 610 212 613 272 q 695 376 654 376 q 777 222 735 376 l 794 260 q 899 422 868 422 q 913 410 908 422 q 928 273 927 379 l 928 236 q 935 99 929 160 q 967 27 943 31 q 978 21 974 26 q 982 9 982 16 q 976 -5 981 -1 q 964 -9 971 -9 l 962 -9 q 918 23 935 -5 q 869 182 888 69 q 859 233 864 212 q 844 262 852 262 q 829 244 838 262 q 791 163 812 211 q 795 136 795 146 q 781 113 795 113 q 761 125 772 113 q 751 155 751 138 l 751 163 q 696 252 724 252 q 685 249 690 252 q 641 169 661 230 q 600 12 621 109 q 580 -10 595 -10 m 492 -9 l 489 -9 q 411 97 437 -1 q 389 195 398 147 q 378 253 384 229 q 361 283 371 283 q 345 264 354 283 l 304 178 q 308 147 308 159 q 294 123 308 123 q 272 137 283 123 q 261 168 261 151 l 262 178 q 202 274 232 274 q 190 270 196 274 q 142 184 163 250 q 116 96 127 142 l 96 6 q 77 -9 90 -9 l 72 -9 q 56 11 56 -3 q 30 200 50 94 l 26 218 q 0 376 1 353 q 15 414 0 397 q 56 431 29 430 q 93 417 77 431 q 111 380 108 403 q 111 342 111 364 q 108 231 111 296 q 201 407 156 407 q 243 367 222 407 q 288 241 265 327 l 308 283 q 421 458 388 458 q 437 444 431 458 q 452 296 451 412 l 453 254 q 460 108 453 173 q 494 30 469 35 q 507 23 502 28 q 511 10 511 18 q 505 -4 511 1 q 492 -9 499 -9 z "},"":{"ha":618,"x_min":0,"x_max":606,"o":"m 588 -9 q 578 -7 583 -9 q 535 67 549 15 q 514 171 521 119 q 504 230 509 207 q 491 252 498 252 q 478 239 486 252 q 404 4 456 201 q 397 -6 401 -2 q 386 -9 392 -9 q 368 9 368 -7 l 368 18 q 353 164 368 97 q 334 253 345 211 q 315 343 323 300 l 315 347 q 330 382 315 366 q 366 398 344 397 q 400 385 386 398 q 418 351 415 372 q 419 300 419 327 q 414 176 419 243 q 446 273 431 232 q 497 387 476 357 q 525 410 513 410 q 553 370 543 410 q 578 178 568 314 q 586 74 582 117 q 598 24 591 31 q 606 9 606 18 q 604 -1 606 3 q 588 -9 597 -9 m 300 -9 q 289 -6 294 -9 q 241 75 256 18 q 218 190 226 132 q 207 254 212 230 q 193 279 201 279 q 179 264 187 279 q 96 5 154 223 q 77 -9 90 -9 q 61 -2 66 -8 q 57 11 57 4 l 57 20 q 41 182 57 107 q 21 277 31 231 q 0 378 8 330 l 0 383 q 15 421 0 405 q 56 439 30 438 q 94 424 78 439 q 112 387 109 410 q 114 332 114 361 q 109 195 114 268 q 143 301 127 256 q 230 452 197 452 q 277 313 262 452 q 288 197 284 256 q 298 78 294 112 q 311 27 302 34 q 320 10 320 20 q 317 -1 320 5 q 300 -9 309 -9 z "},"":{"ha":744,"x_min":0,"x_max":717,"o":"m 474 -420 q 461 -414 467 -420 q 456 -401 456 -408 q 418 76 456 -165 q 368 339 396 205 l 366 350 q 377 381 366 368 q 407 399 389 395 l 418 401 q 449 390 435 401 q 467 360 463 378 q 493 96 489 254 l 500 150 q 559 368 528 311 q 607 410 583 410 q 649 380 629 410 q 684 305 669 351 q 717 109 717 205 q 709 35 717 68 q 650 -33 694 -33 q 543 30 607 -33 q 538 43 538 35 q 543 55 538 50 q 556 61 549 61 q 569 56 563 61 q 616 28 597 28 l 623 29 q 648 58 640 34 q 656 121 656 81 q 648 207 656 163 q 626 277 640 250 q 598 304 613 304 q 560 255 578 304 q 499 -243 519 141 l 493 -402 q 487 -415 493 -410 q 474 -420 481 -420 m 112 -420 q 99 -414 104 -420 q 94 -401 94 -409 q 53 95 94 -157 q 1 368 31 230 l 0 378 q 11 412 0 397 q 42 431 22 427 l 53 433 q 85 421 71 433 q 104 390 100 409 q 131 115 127 279 q 200 398 161 330 q 250 441 225 441 q 293 411 273 441 q 330 333 314 381 q 364 130 364 229 q 356 52 364 87 q 294 -18 340 -18 q 183 47 251 -18 q 178 60 178 53 q 183 74 178 68 q 197 79 189 79 q 210 74 204 79 q 259 46 240 46 l 266 47 q 292 76 283 52 q 301 146 300 100 q 292 232 301 188 q 270 304 283 277 q 240 332 256 332 q 230 329 235 332 q 174 165 201 315 q 138 -236 151 35 l 132 -401 q 125 -415 131 -410 q 112 -420 119 -420 z "},"":{"ha":631,"x_min":0,"x_max":613,"o":"m 595 -9 q 587 -7 591 -9 q 519 155 549 13 q 494 78 509 113 q 430 -9 462 -9 q 373 73 400 -9 q 341 222 351 143 q 332 335 332 295 q 332 355 332 347 q 350 388 335 375 q 384 400 364 400 q 420 384 407 399 q 434 349 434 368 l 434 344 l 430 303 q 418 102 418 181 q 431 33 420 33 q 461 93 442 33 q 492 210 487 172 q 494 269 494 236 l 494 296 l 495 351 q 511 386 496 372 q 547 400 526 400 q 583 384 569 399 q 597 349 597 370 q 589 277 595 325 q 576 120 576 173 q 603 25 576 39 q 613 9 613 19 q 611 1 613 5 q 595 -9 605 -9 m 295 -9 q 286 -7 290 -9 q 211 174 243 16 q 182 87 198 129 q 148 18 166 45 q 111 -9 130 -9 q 46 83 77 -9 q 10 250 22 161 q 0 377 0 332 q 1 399 0 391 q 20 436 3 421 q 58 450 36 450 q 100 431 85 448 q 115 393 115 414 l 115 387 l 111 341 q 98 120 98 204 l 98 90 q 111 37 101 37 q 145 106 124 37 q 179 237 175 194 q 182 321 182 269 l 183 395 q 200 434 184 418 q 239 450 216 450 q 281 432 264 449 q 298 392 298 416 q 291 326 296 370 q 280 230 285 281 q 275 135 275 179 q 304 30 275 45 q 316 10 316 22 q 314 2 316 6 q 295 -9 307 -9 z "},"":{"ha":683,"x_min":-16,"x_max":659,"o":"m 455 -684 q 382 -653 415 -684 q 334 -531 334 -608 q 393 -377 334 -452 q 567 -249 447 -307 q 550 5 564 -117 q 530 160 541 82 l 529 170 l 516 123 q 435 -22 475 -22 q 385 53 409 -22 q 338 314 353 163 l 335 349 q 348 383 335 368 q 385 400 362 400 q 419 388 405 400 q 437 355 434 375 q 438 306 438 339 l 437 227 q 435 58 435 145 q 439 32 435 32 q 458 65 447 32 q 481 144 470 98 q 511 290 511 260 l 511 298 q 523 332 511 317 q 555 349 535 347 l 562 350 q 595 338 581 350 q 612 306 610 326 l 614 296 q 659 -167 659 12 q 653 -294 659 -229 q 600 -547 639 -458 q 531 -652 570 -620 q 455 -684 492 -684 m 444 -648 q 496 -618 469 -648 q 567 -290 564 -543 q 421 -404 467 -342 q 372 -540 372 -471 q 406 -633 372 -602 q 444 -648 423 -648 m 111 -684 q 35 -652 68 -684 q -2 -596 12 -630 q -16 -523 -16 -563 q -1 -444 -16 -485 q 229 -224 44 -313 q 212 44 227 -85 q 189 218 201 132 l 176 170 q 90 15 132 15 q 36 94 62 15 q -1 277 12 180 q -16 402 -13 365 l -16 408 q -3 444 -16 429 q 32 461 11 458 l 38 462 q 74 448 58 462 q 92 414 89 435 q 93 362 93 397 q 91 211 92 281 q 90 100 90 159 q 95 73 90 73 q 115 108 102 73 q 161 288 139 182 q 171 345 171 332 l 170 355 q 184 391 170 375 q 224 409 197 406 q 259 396 244 409 q 277 362 274 383 l 279 347 q 326 -140 326 46 q 321 -272 326 -204 q 264 -539 305 -445 q 191 -650 232 -616 q 111 -684 151 -684 m 98 -646 q 155 -614 126 -646 q 229 -267 225 -535 q 75 -389 123 -323 q 23 -532 23 -459 q 59 -630 23 -596 q 98 -646 77 -646 z "},"":{"ha":482,"x_min":-132,"x_max":439,"o":"m -17 -631 q 38 -600 10 -631 q 87 -496 66 -568 q 113 -254 113 -401 q -41 -375 7 -310 q -93 -518 -93 -445 q -67 -604 -93 -571 q -17 -631 -45 -631 m 181 -420 q 151 -517 169 -471 l 151 -526 q 176 -608 151 -576 q 222 -633 196 -633 q 276 -603 249 -633 q 321 -504 302 -573 q 347 -275 345 -422 q 201 -390 246 -328 q 181 -420 190 -405 m 208 -211 q 197 -335 206 -275 q 346 -234 251 -281 l 346 -227 q 341 9 345 -116 q 310 284 336 157 q 296 311 307 302 q 257 319 285 319 q 244 325 250 319 q 239 338 239 330 q 244 351 239 345 q 257 356 250 356 q 289 357 275 356 q 337 358 317 357 q 367 359 355 359 q 398 350 392 359 q 407 313 405 341 q 416 224 411 270 q 434 7 427 121 q 439 -152 439 -73 q 437 -234 439 -193 q 380 -532 431 -399 q 311 -637 349 -605 q 235 -669 272 -669 q 160 -636 193 -669 q 123 -576 134 -610 q 75 -635 101 -614 q -5 -669 35 -669 q -83 -635 -48 -669 q -132 -509 -132 -587 q -117 -429 -132 -471 q -70 -347 -102 -388 q 113 -211 -13 -272 q 112 -146 112 -180 q 107 45 111 -54 q 75 335 102 201 q 60 363 71 354 q 19 372 49 372 q 5 377 11 372 q 0 391 0 383 q 5 405 0 399 q 19 410 11 410 l 52 411 q 102 413 81 412 q 134 414 121 414 q 168 404 161 414 q 177 365 175 395 q 186 262 181 315 q 205 43 197 157 q 210 -119 210 -38 q 208 -211 210 -165 z "},"":{"ha":796,"x_min":-18,"x_max":774,"o":"m 507 -9 l 503 -9 q 488 4 491 -7 q 428 203 460 60 q 390 439 404 312 q 380 599 380 528 q 386 699 380 654 q 417 834 395 782 q 469 909 439 886 q 528 932 498 932 q 567 924 548 932 q 629 859 604 905 q 654 746 654 812 q 623 604 654 682 q 468 395 583 504 q 481 219 472 301 q 502 81 490 138 q 564 267 529 197 q 638 370 600 340 q 707 400 677 400 q 757 378 738 399 q 774 333 774 359 q 753 280 774 307 q 643 224 725 243 q 671 136 661 183 l 677 109 q 692 50 684 74 q 711 26 699 26 q 733 46 720 26 q 749 54 739 54 q 759 52 754 54 q 767 36 767 45 q 764 26 767 31 q 713 -9 739 -9 q 611 77 665 -9 q 564 166 578 130 q 524 10 542 103 l 524 8 q 515 -7 524 -1 q 507 -9 511 -9 m 622 259 q 661 276 649 266 q 673 295 673 287 q 659 307 673 305 q 611 270 637 307 q 622 259 617 265 m 466 445 q 585 623 552 533 q 612 764 612 696 q 598 850 612 817 q 558 886 582 885 q 512 842 535 886 q 475 694 488 797 q 465 507 465 619 l 466 445 m 113 -9 l 109 -9 q 94 5 96 -7 q 31 210 64 63 q -8 454 7 323 q -18 617 -18 545 q -12 724 -18 676 q 21 864 -2 810 q 74 941 43 917 q 136 966 104 966 q 175 956 155 966 q 239 889 214 937 q 265 772 265 841 q 73 410 265 591 q 108 85 81 208 q 172 276 136 205 q 249 383 210 351 q 320 414 288 414 q 372 391 353 413 q 389 345 389 372 q 368 290 389 318 q 254 233 339 252 q 283 140 273 190 l 290 112 q 305 52 297 76 q 324 28 313 28 q 347 48 334 28 q 363 56 354 56 q 374 54 368 56 q 382 37 382 47 q 379 27 382 33 q 326 -9 353 -9 q 221 79 277 -9 q 172 172 186 135 q 131 11 149 107 l 131 9 q 121 -7 131 -1 q 113 -9 117 -9 m 232 268 q 272 286 260 275 q 284 306 284 297 q 271 317 284 316 q 221 279 248 317 q 232 268 227 275 m 71 460 q 193 644 160 553 q 222 791 222 720 q 208 880 222 846 q 166 918 191 916 q 134 898 151 918 q 103 834 117 878 q 70 525 70 730 l 71 460 z "},"":{"ha":650,"x_min":0,"x_max":750,"o":"m 720 -439 q 694 -426 709 -439 q 673 -405 684 -416 q 623 -369 640 -369 q 594 -406 604 -369 q 587 -416 592 -412 q 576 -420 583 -420 q 558 -401 558 -417 l 558 -399 q 565 -262 565 -326 q 538 9 562 -122 l 530 66 q 523 101 528 101 q 506 81 518 101 q 480 43 497 66 q 405 -11 441 -11 q 371 6 387 -11 q 346 61 356 22 q 336 147 336 100 q 347 245 336 195 q 378 326 357 291 q 430 372 399 360 q 458 377 444 377 q 518 358 489 377 q 566 316 547 340 q 570 304 570 311 q 564 291 570 296 q 552 286 558 286 q 537 293 544 286 q 518 315 528 305 q 498 324 509 324 q 475 309 487 324 q 433 220 452 278 q 404 65 405 127 q 416 33 404 33 q 452 66 428 33 q 493 129 478 100 q 508 194 508 157 q 506 221 508 207 l 505 227 q 518 261 505 246 q 557 279 532 277 q 590 266 576 279 q 618 19 618 241 q 610 -219 618 -99 q 602 -326 607 -275 q 621 -322 612 -322 q 687 -380 656 -322 q 701 -399 696 -395 l 704 -401 q 713 -370 710 -401 q 720 -358 714 -363 q 732 -353 725 -353 q 745 -360 741 -355 q 750 -373 750 -365 q 720 -439 743 -439 m 401 -439 q 374 -425 389 -439 q 351 -404 363 -415 q 299 -366 317 -366 q 270 -405 280 -366 q 263 -415 268 -412 q 251 -419 258 -419 l 246 -418 q 232 -400 232 -413 l 232 -397 q 239 -254 239 -321 q 212 29 237 -113 q 204 88 207 66 q 195 125 201 125 q 178 104 191 125 q 151 64 168 89 q 72 8 110 8 q 11 82 31 8 q 0 176 0 125 q 11 274 0 225 q 43 360 22 323 q 98 409 65 396 q 127 414 113 414 q 190 394 160 414 q 240 350 220 375 q 245 337 245 344 q 238 324 245 329 q 226 319 232 319 q 211 326 218 319 q 191 348 201 338 q 170 358 180 358 q 145 342 158 358 q 102 249 121 311 q 71 88 72 153 q 83 54 71 54 q 122 90 96 54 q 164 154 149 125 q 180 222 180 182 q 178 250 180 235 l 177 256 q 191 293 177 277 q 231 311 204 309 q 266 298 251 311 q 296 39 296 271 q 277 -321 294 -139 q 298 -317 288 -317 q 367 -376 335 -317 q 385 -399 378 -395 q 394 -367 391 -399 q 400 -355 395 -359 q 413 -350 406 -350 q 428 -356 423 -351 q 433 -370 433 -362 q 401 -439 425 -439 z "},"":{"ha":600,"x_min":-18,"x_max":579,"o":"m 456 -26 q 303 340 395 -26 l 302 349 q 314 381 302 367 q 354 400 329 400 q 386 389 372 400 q 404 359 399 378 q 436 159 425 247 q 451 64 444 100 q 466 28 458 28 q 543 353 488 28 q 549 364 544 359 q 560 368 554 368 q 574 361 569 367 q 579 350 579 356 l 578 347 q 518 71 547 168 q 456 -26 489 -26 m 145 -26 q -17 363 81 -26 l -18 374 q -6 408 -18 393 q 26 427 6 422 l 37 429 q 70 416 56 429 q 90 385 85 404 q 125 170 113 264 q 140 70 133 108 q 156 33 147 33 q 237 377 178 33 q 244 389 239 385 q 258 393 250 393 q 271 387 267 393 q 276 374 276 381 l 276 370 q 212 77 243 180 q 145 -26 181 -26 z "},"":{"ha":854,"x_min":-22,"x_max":838,"o":"m 596 1 q 535 83 571 1 q 481 231 512 139 q 446 329 458 302 q 440 352 440 340 q 468 397 440 380 q 491 403 479 403 q 537 374 519 403 q 585 93 564 312 q 597 39 591 39 q 608 66 602 39 l 615 90 q 637 165 625 127 l 637 167 q 632 188 632 177 q 663 234 632 217 q 684 239 673 239 q 730 208 713 239 q 743 112 741 184 q 749 60 746 60 q 760 132 751 60 q 773 237 765 180 q 804 359 786 330 q 820 368 810 368 q 830 365 825 368 q 838 349 838 358 q 836 340 838 345 q 817 304 824 332 q 798 186 808 271 q 783 82 792 130 q 739 5 768 5 q 671 84 707 5 l 659 111 l 654 96 q 638 52 647 73 q 596 1 617 1 m 155 1 q 85 93 125 1 q 28 250 54 169 l 24 260 q -16 371 -5 348 q -22 397 -22 384 q 10 448 -22 429 q 36 454 23 454 q 87 422 68 454 q 119 290 106 382 q 142 105 134 186 q 155 43 149 43 q 169 75 161 43 l 174 95 q 201 186 185 140 l 201 189 q 196 212 196 200 q 205 242 196 228 q 230 264 214 257 q 253 269 241 269 q 284 260 269 269 q 306 235 298 251 q 320 132 317 209 q 327 67 324 67 q 339 146 330 67 q 354 267 345 203 q 390 406 367 363 q 408 415 397 415 q 418 412 413 415 q 428 394 428 404 q 425 383 428 389 q 404 342 412 374 q 382 209 393 301 q 366 93 376 146 q 315 5 349 5 q 278 29 298 5 q 226 125 250 64 q 202 59 215 92 q 155 1 178 1 z "},"":{"ha":705,"x_min":-30,"x_max":682,"o":"m 661 -9 q 648 -4 653 -9 q 642 9 642 1 q 581 78 636 31 q 517 133 551 103 q 463 74 486 102 q 438 17 438 44 l 439 9 q 434 -3 439 2 q 420 -9 429 -9 q 408 -4 413 -9 q 402 10 402 1 q 435 92 402 40 q 483 163 448 113 q 416 235 446 197 q 359 344 370 289 l 359 349 q 373 384 359 368 q 411 401 386 399 q 444 388 430 401 q 461 355 458 375 q 521 217 461 300 q 581 351 578 300 q 596 386 581 372 q 632 400 610 400 q 668 385 654 399 q 682 350 682 370 l 682 349 q 626 241 678 296 q 557 171 604 217 q 590 132 573 151 q 658 51 641 72 q 679 7 679 24 q 673 -4 679 1 q 661 -9 668 -9 m 307 -9 q 292 -4 298 -9 q 286 11 286 2 q 217 88 279 36 q 146 149 184 116 q 87 84 111 115 q 58 20 58 49 l 59 11 q 54 -3 59 3 q 39 -9 48 -9 q 25 -4 31 -9 q 18 12 18 2 q 28 54 18 31 q 109 183 50 103 q 33 262 67 221 q -29 384 -18 323 l -30 390 q -15 429 -30 412 q 27 448 1 446 q 65 433 49 448 q 84 397 81 419 q 108 312 84 357 q 151 243 125 277 q 217 391 217 340 q 234 431 218 415 q 274 447 250 447 q 315 429 299 446 q 331 389 331 413 q 268 270 326 331 q 191 192 233 230 q 244 129 218 159 q 304 56 280 87 q 327 11 327 27 q 321 -4 327 2 q 307 -9 315 -9 z "},"":{"ha":600,"x_min":-45,"x_max":600,"o":"m 389 -649 q 446 -617 418 -649 q 491 -511 473 -585 q 508 -330 508 -443 l 507 -289 q 349 -420 392 -350 q 311 -536 311 -478 q 322 -595 311 -570 q 352 -635 334 -621 q 389 -649 370 -649 m 382 -685 q 328 -665 353 -685 q 275 -538 275 -621 q 318 -402 275 -471 q 506 -249 369 -317 l 504 -221 q 436 -245 467 -245 q 382 -225 406 -245 q 337 -112 337 -184 q 385 50 337 -49 q 350 34 356 45 q 333 22 343 22 q 326 24 330 22 q 315 41 315 30 q 316 48 315 44 q 348 74 324 64 q 404 87 372 84 q 447 165 418 115 q 509 308 509 273 l 509 312 q 493 334 509 334 q 464 326 479 334 q 378 248 421 303 q 363 241 372 241 q 353 244 357 241 q 345 259 345 251 q 349 270 345 265 q 490 366 422 366 q 558 319 536 366 q 568 265 568 296 q 507 81 568 191 q 538 63 527 74 q 550 39 550 52 q 545 20 550 30 q 529 11 539 11 q 520 13 525 11 q 511 29 511 20 q 513 37 511 33 q 488 47 505 43 l 465 5 q 412 -92 433 -47 q 396 -156 396 -130 q 411 -200 396 -186 q 439 -212 424 -212 q 478 -190 460 -212 q 497 -123 497 -168 l 497 -113 q 511 -78 497 -92 q 547 -62 525 -63 q 583 -76 568 -62 q 599 -111 597 -90 l 600 -138 q 589 -292 600 -197 q 458 -651 552 -569 q 382 -685 418 -685 m 75 -648 q 134 -614 104 -648 q 181 -503 163 -581 q 199 -318 199 -433 l 198 -271 q 33 -408 78 -334 q -7 -530 -7 -469 q 5 -592 -7 -565 q 36 -633 17 -618 q 75 -648 54 -648 m 68 -685 q 11 -664 37 -685 q -45 -532 -45 -618 q 0 -389 -45 -458 q 197 -229 54 -300 l 195 -200 q 125 -225 157 -225 q 67 -204 92 -225 q 20 -87 20 -161 q 71 83 20 -22 q 33 66 40 78 q 16 55 26 55 q 8 56 12 55 q -3 74 -3 63 q -2 81 -3 78 q 32 110 6 99 q 91 123 57 120 q 134 201 105 151 l 155 240 q 200 357 200 322 q 182 380 200 380 q 153 372 170 380 q 63 291 109 349 q 48 283 56 283 q 37 287 42 283 q 28 302 28 294 q 33 314 28 309 q 180 414 109 414 q 252 366 229 414 q 262 309 262 342 q 237 197 262 261 q 197 115 220 156 q 231 98 219 109 q 243 72 243 86 q 237 53 243 63 q 221 43 231 43 q 212 45 217 43 q 202 62 202 52 q 204 71 202 66 q 178 81 197 77 l 156 42 q 98 -65 121 -17 q 81 -132 81 -104 q 98 -178 81 -163 q 127 -190 111 -190 q 169 -167 149 -190 q 188 -98 188 -144 l 188 -86 q 202 -50 188 -65 q 239 -33 217 -35 q 278 -48 262 -33 q 294 -84 293 -62 l 295 -112 q 283 -275 295 -174 q 147 -650 244 -564 q 68 -685 106 -685 z "},"":{"ha":888,"x_min":0,"x_max":970,"o":"m 942 -103 q 801 23 876 -103 q 726 170 762 90 q 555 -7 637 -7 q 475 33 511 -7 q 410 144 439 72 q 348 31 378 74 q 290 -13 318 -13 q 246 20 268 -13 q 201 125 224 52 q 146 37 176 75 q 74 -12 106 -12 q 19 36 39 -12 q 0 144 0 83 q 10 232 0 188 q 41 311 20 275 q 135 376 84 376 q 236 316 186 376 q 240 304 240 311 q 234 291 240 296 q 222 286 229 286 q 208 293 214 286 q 159 326 179 326 q 134 311 144 326 q 115 269 123 295 q 91 171 101 227 q 81 75 81 115 q 95 33 81 33 q 124 61 105 33 q 186 179 155 111 q 176 231 176 217 q 193 266 176 251 q 227 279 207 279 l 233 278 q 266 261 253 275 q 278 227 278 247 l 278 222 q 275 190 277 215 q 268 88 268 121 q 286 26 268 26 q 319 55 300 26 q 358 122 338 83 q 393 194 378 161 q 344 412 361 297 q 327 614 327 526 q 338 748 327 691 q 391 879 356 837 q 464 922 426 922 q 549 861 512 922 q 583 751 573 819 q 587 688 587 722 q 471 275 587 507 q 437 203 454 240 q 551 29 482 29 q 630 82 590 31 q 707 214 670 134 q 659 349 680 279 q 609 659 609 524 q 615 747 609 707 q 666 884 630 838 q 741 929 701 929 l 750 928 q 816 885 787 924 q 858 773 845 846 q 864 689 864 736 q 800 350 864 542 q 765 258 785 305 l 761 247 q 834 45 791 133 q 940 -66 890 -66 l 951 -65 q 970 -83 967 -65 q 966 -95 970 -90 q 955 -101 962 -100 q 942 -103 949 -102 m 429 271 q 490 413 466 343 q 542 699 542 564 q 540 746 542 724 q 481 882 526 874 q 447 848 464 882 q 411 572 411 777 q 429 271 411 433 m 746 309 l 761 351 q 825 690 825 538 q 819 774 825 738 q 758 889 798 888 q 722 856 739 889 q 701 751 706 822 q 699 690 699 724 q 737 349 699 552 q 746 309 741 329 z "},"":{"ha":726,"x_min":0,"x_max":808,"o":"m 780 -103 q 704 -64 741 -103 q 631 36 666 -26 q 564 170 596 98 q 393 -7 475 -7 l 390 -7 q 244 155 304 -7 q 176 42 205 83 q 104 -14 133 -14 q 68 9 83 -14 q 9 237 33 62 q 0 335 0 298 q 1 358 0 349 q 19 389 5 377 q 51 400 33 400 q 91 382 76 400 q 102 349 102 368 l 102 340 l 96 315 q 75 148 75 240 q 111 40 75 40 q 228 203 153 40 q 211 267 219 233 q 165 613 165 469 q 183 782 165 715 q 231 883 201 849 q 302 922 264 922 q 383 867 347 922 q 425 688 425 802 q 412 562 425 631 q 304 264 389 433 q 274 208 290 237 q 327 71 298 113 q 389 29 357 29 q 468 82 428 31 q 545 214 508 134 q 497 349 518 279 q 447 659 447 526 q 470 819 447 757 q 527 908 492 882 q 580 929 553 929 q 652 887 618 929 q 688 808 675 858 q 702 689 702 759 q 637 350 702 543 q 603 258 623 305 l 599 247 q 650 94 621 165 q 713 -21 680 24 q 779 -66 746 -66 l 789 -65 q 808 -83 805 -65 q 804 -95 808 -90 q 793 -101 800 -100 q 780 -103 787 -102 m 75 453 q 58 463 65 453 l 56 465 q 50 473 55 467 q 34 489 41 481 q 26 504 26 496 q 30 515 26 510 q 45 522 37 522 q 55 519 50 522 q 64 510 59 515 q 86 487 79 496 q 93 471 93 478 q 83 455 93 461 q 75 453 79 453 m 267 271 q 368 565 347 431 q 379 696 379 637 q 354 848 379 798 q 319 882 338 882 q 282 842 300 882 q 249 567 249 766 q 267 271 250 443 m 584 309 l 599 351 q 663 690 663 538 q 653 797 663 753 q 628 865 644 840 q 595 889 612 889 q 568 869 581 889 q 545 805 554 850 q 536 690 536 761 q 575 349 536 554 q 584 309 579 329 z "},"":{"ha":880,"x_min":0,"x_max":963,"o":"m 935 -103 q 802 9 871 -103 q 718 170 758 80 q 547 -7 629 -7 l 545 -7 q 401 149 461 -7 q 339 40 374 92 q 272 -11 302 -11 q 213 60 237 -11 q 189 155 199 100 q 163 78 176 113 q 98 -9 130 -9 q 41 73 68 -9 q 9 222 20 143 q 0 337 0 296 l 1 355 q 18 388 3 375 q 52 400 33 400 q 90 383 75 400 q 103 350 103 369 q 92 229 99 312 q 87 102 87 159 l 87 79 q 99 33 90 33 q 130 93 111 33 q 160 210 155 172 q 163 269 163 236 q 163 351 163 319 q 179 386 165 372 q 215 400 194 400 q 252 384 237 399 q 266 349 266 370 q 259 286 264 328 q 250 204 254 248 q 246 128 246 170 q 250 68 246 97 q 273 27 257 27 q 310 60 289 27 q 384 199 345 109 q 366 267 374 231 q 319 615 319 465 q 340 788 319 718 q 388 886 359 854 q 456 922 421 922 q 529 880 495 922 q 565 802 551 850 q 579 689 579 754 q 576 624 579 659 q 459 264 563 475 q 429 208 445 237 q 482 71 452 113 q 543 29 511 29 q 623 82 583 31 q 699 214 663 134 q 652 349 673 279 q 602 623 606 509 l 602 659 q 615 787 602 733 q 652 875 629 842 q 734 929 690 929 q 814 878 778 929 q 857 688 857 812 q 792 350 857 547 q 758 258 777 305 l 753 247 q 836 28 786 120 q 884 -40 859 -15 q 933 -66 909 -66 l 944 -65 q 963 -83 960 -65 q 959 -95 963 -90 q 948 -101 954 -100 q 935 -103 941 -102 m 421 271 q 497 458 471 368 q 534 697 534 585 q 527 790 534 750 q 507 852 519 829 q 474 882 491 882 q 442 853 458 882 q 404 625 412 800 l 404 580 q 421 271 404 456 m 739 309 l 753 351 q 814 626 807 509 q 817 691 817 661 q 794 841 817 789 q 750 889 774 889 q 709 841 728 889 q 691 692 691 793 q 730 349 691 553 q 739 309 734 329 z "},"":{"ha":804,"x_min":0,"x_max":887,"o":"m 98 248 l 160 261 l 160 273 q 136 336 160 330 q 112 307 121 334 q 98 248 103 283 m 859 -103 q 643 170 763 -103 q 472 -7 554 -7 l 469 -7 q 321 159 383 -7 q 233 57 287 108 q 109 -9 163 -9 q 30 52 59 -9 q 0 198 0 120 q 21 309 0 262 q 111 374 50 374 q 130 373 119 374 q 177 343 158 369 q 197 272 197 318 q 195 241 197 249 q 185 230 193 233 q 161 224 178 227 l 94 209 q 91 153 91 180 q 98 75 91 110 q 132 33 106 33 q 210 83 160 33 q 307 205 258 132 q 290 267 298 234 q 244 615 244 465 q 264 788 244 718 q 313 886 283 854 q 380 922 345 922 q 454 880 420 922 q 490 803 476 850 q 503 690 503 755 q 500 624 503 659 q 384 264 487 475 q 353 208 370 237 q 468 29 398 29 q 547 82 507 31 q 623 214 587 134 q 576 349 597 279 q 527 623 531 509 l 526 659 q 540 787 526 733 q 576 875 553 842 q 659 929 615 929 q 738 878 702 929 q 781 688 781 812 q 716 350 781 545 q 677 247 699 296 q 760 28 711 120 q 858 -66 812 -66 l 868 -65 q 887 -80 882 -65 l 887 -83 q 872 -102 887 -96 l 859 -103 m 346 271 q 422 458 396 368 q 459 697 459 587 q 451 790 459 750 q 431 852 444 829 q 399 882 416 882 q 366 853 382 882 q 328 574 332 793 q 346 271 328 451 m 663 309 l 678 351 q 739 626 730 509 q 742 690 742 660 q 719 841 742 784 q 674 889 698 889 q 633 841 652 889 q 615 690 615 793 q 663 309 615 543 z "},"":{"ha":796,"x_min":0,"x_max":879,"o":"m 174 125 q 178 161 177 143 q 180 187 179 165 q 160 286 180 252 q 119 321 141 321 q 77 264 90 321 l 80 264 q 112 246 100 260 q 124 214 124 232 q 121 191 123 205 q 116 155 119 176 q 174 125 146 125 m 851 -103 q 783 -73 817 -103 q 635 170 715 -9 q 463 -7 546 -7 q 377 40 416 -7 q 309 172 338 87 q 222 100 269 124 q 207 94 215 96 q 138 -7 189 13 q 115 -12 126 -12 q 53 24 81 -12 q 18 155 18 66 q 20 205 18 181 q 0 277 0 244 q 16 333 0 309 q 56 367 31 356 q 94 375 74 375 q 144 359 119 375 q 188 308 170 343 q 214 170 214 260 q 214 137 214 150 q 296 214 258 163 q 282 267 288 239 q 236 615 236 465 q 256 788 236 718 q 304 886 275 854 q 372 922 337 922 q 446 880 412 922 q 481 803 468 850 q 495 690 495 755 q 492 624 495 659 q 376 264 479 475 q 345 208 361 237 q 460 29 390 29 q 539 82 499 31 q 615 214 579 134 q 568 349 589 279 q 519 623 523 509 l 518 659 q 532 787 518 733 q 568 875 545 842 q 651 929 607 929 q 730 878 694 929 q 773 688 773 812 q 708 350 773 545 q 674 258 693 305 l 669 247 q 752 28 703 120 q 849 -66 804 -66 l 860 -65 q 879 -80 873 -65 l 879 -83 q 864 -102 879 -96 l 851 -103 m 124 22 q 136 30 130 22 q 166 88 155 50 q 136 95 148 90 q 111 110 125 100 q 109 71 109 87 q 124 22 109 22 m 337 271 q 414 458 387 368 q 450 696 450 585 q 443 789 450 749 q 423 852 435 829 q 391 882 408 882 q 358 853 374 882 q 320 574 323 793 q 337 271 320 451 m 654 309 l 670 351 q 731 626 722 509 q 734 690 734 660 q 711 841 734 784 q 666 889 690 889 q 625 841 644 889 q 607 690 607 793 q 654 309 607 543 z "},"":{"ha":0,"x_min":-6,"x_max":975,"o":"m 356 446 q 503 766 503 597 q 488 851 503 818 q 448 888 472 888 q 402 843 425 888 q 355 509 355 754 l 356 446 m 68 -9 q 13 37 33 -9 q -6 146 -6 84 q 35 312 -6 243 q 129 377 78 377 q 230 317 180 377 q 234 306 234 312 q 229 293 234 298 q 216 288 223 288 q 202 294 208 288 q 153 328 173 328 q 109 271 127 328 q 85 172 95 228 q 75 73 75 116 q 89 35 75 35 q 118 62 99 35 q 180 180 149 112 q 170 233 170 218 q 186 267 172 254 q 221 280 201 280 q 258 264 244 279 q 272 229 272 250 q 270 205 272 222 q 261 73 261 125 q 269 28 261 30 q 281 9 281 22 q 262 -8 281 -8 q 195 127 235 -5 q 101 2 148 31 q 68 -9 83 -9 m 836 -14 q 755 54 787 -14 q 726 199 726 121 q 747 311 726 264 q 837 376 775 376 q 903 345 879 376 q 922 273 922 320 q 915 234 922 240 q 901 229 909 229 q 884 248 884 231 q 886 275 886 263 q 878 320 886 303 q 861 338 871 338 q 836 305 846 335 q 817 155 817 247 q 835 41 817 73 q 854 27 842 27 q 890 55 871 30 q 940 141 922 97 q 956 152 946 152 q 964 150 960 152 q 975 134 975 144 q 973 126 975 130 q 870 -5 930 27 q 836 -14 852 -14 m 614 -50 q 519 15 570 -50 q 465 100 484 62 q 463 109 463 104 q 473 125 463 119 q 481 127 477 127 q 498 117 491 127 q 549 35 512 85 q 600 -12 582 -12 q 620 58 620 -12 q 590 237 620 163 q 557 271 576 271 q 538 262 548 271 q 444 78 494 217 q 418 5 427 33 q 396 -8 412 -8 q 380 1 387 -8 q 318 204 351 56 q 271 598 271 422 q 308 836 271 749 q 418 934 350 934 q 457 925 438 934 q 519 860 494 907 q 545 747 545 814 q 358 397 545 573 q 397 60 368 175 q 513 290 451 219 q 585 329 551 329 q 633 309 611 329 q 671 255 656 288 q 695 182 687 222 q 703 110 703 146 q 683 9 703 54 q 614 -50 654 -50 z "}}}
